<svg width="62" height="62" viewBox="0 0 62 62" fill="none" xmlns="http://www.w3.org/2000/svg">
<g clip-path="url(#clip0_6076_46)">
<path d="M61.2833 1.68036C61.2631 1.52396 61.2187 1.37959 61.1379 1.24724C61.0592 1.1129 60.9441 0.990582 60.7887 0.874282C60.5243 0.677775 60.066 0.529392 59.4746 0.445175C58.762 0.342911 57.8556 0.33088 56.8564 0.441164C55.7724 0.55947 54.5835 0.820142 53.4167 1.25727C52.4579 1.6182 51.5172 2.09744 50.6653 2.71904C50.6471 2.73709 50.627 2.75514 50.6088 2.77318C49.5732 3.77778 48.6023 5.01296 47.6394 6.35643C46.8582 7.44724 46.081 8.60824 45.2796 9.78127C44.5327 10.8741 43.7616 11.9769 42.9441 13.0337C42.1508 14.0623 41.313 15.0489 40.4087 15.9492C39.5245 16.8295 38.5758 17.6255 37.5402 18.2952C37.2919 18.4557 37.0396 18.6101 36.7812 18.7544C35.996 19.1956 35.1361 19.5505 34.3084 19.8172C34.0702 19.8934 33.8361 19.9615 33.608 20.0237C32.7238 19.8994 31.8235 19.8352 30.9111 19.8352C30.901 19.8352 30.8909 19.8352 30.8808 19.8352C30.039 19.8352 29.1912 19.8954 28.3414 20.0077C28.0386 19.9335 27.7418 19.8513 27.4512 19.759C26.2582 19.378 25.1681 18.8447 24.1568 18.185C23.1495 17.5273 22.2209 16.7452 21.3428 15.867C20.4486 14.9707 19.6088 13.9761 18.7993 12.9113C18.0202 11.8867 17.2672 10.7959 16.5183 9.66898C16.2438 9.25792 15.9713 8.84084 15.6967 8.41975C15.186 7.63573 14.6995 6.89582 14.213 6.20203C13.2562 4.8345 12.3075 3.65345 11.2134 2.701C9.98604 1.63023 8.57301 0.848215 6.75827 0.409082C5.92861 0.204554 5.01216 0.0762227 3.98872 0.0240881C3.56481 0.00403637 3.12273 -0.00398432 2.66046 2.60249e-05C2.05892 0.0160674 1.67336 0.0160674 1.33423 0.110311C1.0819 0.180492 0.855816 0.300802 0.585321 0.517361C0.437962 0.635666 0.326937 0.774023 0.242155 0.920401C0.157373 1.06678 0.100852 1.22519 0.0645165 1.38159C0.0261627 1.53799 0.0100137 1.6944 0.00193922 1.83877C-0.00411664 1.98515 -7.93975e-05 2.1195 0.00799509 2.23379C0.0180882 2.37215 0.0322186 2.48243 0.0362558 2.54459C0.0483675 2.72706 0.0685538 2.89349 0.0927772 3.04789C0.135168 3.30856 0.193708 3.53314 0.268397 3.72564C0.345105 3.92415 0.43998 4.08858 0.548986 4.22493C0.657991 4.36128 0.783146 4.46956 0.920412 4.55378C1.13439 4.68612 1.38268 4.76432 1.65923 4.81044C2.16388 4.89666 2.76543 4.87661 3.4336 4.89065C4.08763 4.90268 4.80626 4.94679 5.56122 5.14731C6.33637 5.35384 7.14988 5.73081 7.97146 6.41257C8.14506 6.55695 8.32068 6.71536 8.4963 6.88981C9.03124 7.42118 9.57424 8.13702 10.1475 8.97719C10.8238 9.96574 11.5485 11.1287 12.362 12.3679C13.1109 13.5089 13.9365 14.714 14.8751 15.9091C15.7593 17.038 16.7424 18.1569 17.8526 19.2016C18.9669 20.2503 20.2124 21.2268 21.6133 22.065C21.3468 22.1953 21.0844 22.3337 20.822 22.474C20.2164 22.8029 19.625 23.1578 19.0476 23.5448C18.1615 24.1363 17.3116 24.794 16.5102 25.5179C15.7573 26.1976 15.0487 26.9335 14.3947 27.7236C13.2199 29.1372 12.2166 30.7213 11.4395 32.4658C11.3446 32.6804 11.2537 32.8989 11.1649 33.1175C10.4079 34.9903 9.90934 37.0356 9.73372 39.2393C9.68729 39.8228 9.66306 40.4183 9.66306 41.0239C9.66306 42.5659 9.82657 44.0537 10.1354 45.4794C10.5916 47.5989 11.3668 49.576 12.4003 51.3726C13.337 53.0048 14.4876 54.4907 15.8017 55.796C15.9793 55.9725 16.159 56.1429 16.3407 56.3113C17.8889 57.745 19.6431 58.9441 21.5386 59.8645C23.4361 60.7869 25.4709 61.4326 27.5783 61.7554C28.6058 61.9138 29.6515 61.994 30.7052 61.994C31.7589 61.994 32.8631 61.9078 33.9087 61.7414C35.5216 61.4867 37.078 61.0456 38.5556 60.438C39.0259 60.2435 39.4882 60.0329 39.9404 59.8084C41.8399 58.8599 43.584 57.6308 45.1121 56.179C45.2292 56.0687 45.3442 55.9564 45.4593 55.8421C46.834 54.4746 48.0229 52.9226 48.9798 51.2302C49.9891 49.4456 50.744 47.5066 51.1902 45.4613C51.4929 44.0657 51.6565 42.624 51.6565 41.1462C51.6565 40.5106 51.6262 39.8789 51.5697 39.2553C51.3799 37.172 50.8813 35.1568 50.1203 33.2639C49.3492 31.3449 48.3096 29.5523 47.05 27.9401C46.5776 27.3346 46.075 26.7531 45.542 26.2016C44.6417 25.2692 43.6587 24.419 42.609 23.6631C42.0478 23.2601 41.4685 22.8831 40.873 22.5382C40.6388 22.4018 40.4006 22.2715 40.1624 22.1452C40.55 21.9266 40.9315 21.694 41.307 21.4474C42.2436 20.7295 43.0793 20.0217 43.8343 19.3219C45.0535 18.193 46.0528 17.0941 46.9006 16.0394C47.8937 14.8022 48.677 13.6232 49.3572 12.5264C50.1485 11.2471 50.8006 10.08 51.4768 9.0554C52.1228 8.07687 52.7929 7.22868 53.6327 6.54692C53.6529 6.53088 53.6731 6.51484 53.6932 6.4988C54.3352 5.98547 54.9488 5.6486 55.5282 5.42803C56.2206 5.16335 56.8665 5.06309 57.456 5.01898C58.11 4.97085 58.6974 4.99091 59.2081 4.93677C59.6744 4.88664 60.0782 4.77435 60.4092 4.48761C60.5545 4.36329 60.6595 4.23696 60.7403 4.10662C60.821 3.97629 60.8775 3.84194 60.924 3.70158C60.9704 3.55921 61.0047 3.40882 61.041 3.25041C61.0592 3.17823 61.0754 3.10203 61.0955 3.02383C61.1177 2.93761 61.1379 2.85339 61.1581 2.77118C61.2106 2.55662 61.253 2.36012 61.2772 2.17765C61.3014 1.99517 61.3075 1.82674 61.2873 1.67034L61.2833 1.68036ZM42.1265 28.9026C42.6877 29.432 43.2004 29.9954 43.6708 30.587C44.6962 31.8763 45.4997 33.298 46.077 34.7938C46.4706 35.8165 46.7573 36.8732 46.9329 37.948C47.0197 38.4713 47.0782 38.9987 47.1125 39.528C47.2155 41.1362 47.0742 42.7644 46.6806 44.3565C46.3697 45.6157 45.9034 46.8509 45.2716 48.036C45.1282 48.3448 44.9688 48.6536 44.7972 48.9624C44.0866 50.2377 43.1439 51.4889 42.0236 52.6018C41.9509 52.674 41.8783 52.7441 41.8056 52.8143C41.2929 53.3056 40.7458 53.7668 40.1685 54.1899C39.6033 54.6029 38.8382 55.1102 37.8511 55.5875C36.65 56.169 35.1179 56.7084 33.2083 56.9851C32.3625 57.1074 31.444 57.1796 30.4468 57.1796C29.7605 57.1796 29.0499 57.1234 28.3293 57.0112C26.7931 56.7705 25.2065 56.2773 23.6804 55.5333C22.2451 54.8335 20.8624 53.9152 19.6229 52.7802C19.4756 52.6439 19.3282 52.5075 19.1849 52.3652C18.1978 51.3906 17.3177 50.2698 16.591 49.0065C15.8199 47.663 15.2244 46.1591 14.8671 44.4969C14.6289 43.384 14.4956 42.2009 14.4876 40.9457C14.4856 40.4985 14.5017 40.0534 14.536 39.6082C14.6592 37.9921 15.0245 36.396 15.6281 34.876C15.9026 34.1842 16.2256 33.5065 16.5991 32.8508C17.029 32.0969 17.5236 31.373 18.0807 30.6832C19.0799 29.45 20.2851 28.3311 21.692 27.3687C22.0251 27.1401 22.3703 26.9215 22.7276 26.711C23.7046 26.1375 24.722 25.6763 25.7636 25.3234C26.8355 24.9604 27.9356 24.7158 29.0418 24.5855C29.2195 24.5654 29.3951 24.5474 29.5727 24.5313C29.9987 24.5614 30.4226 24.5774 30.8485 24.5774C31.333 24.5774 31.8154 24.5614 32.2979 24.5253C32.4634 24.5394 32.6289 24.5554 32.7945 24.5734C32.8025 24.5734 32.8126 24.5754 32.8207 24.5774C34.2095 24.7379 35.5781 25.0747 36.8882 25.5861C38.0106 26.0252 39.0905 26.5906 40.1039 27.2824C40.8104 27.7637 41.4846 28.3051 42.1205 28.9046L42.1265 28.9026Z" fill="white"/>
</g>
<defs>
<clipPath id="clip0_6076_46">
<rect width="61.2955" height="62" fill="white"/>
</clipPath>
</defs>
</svg>
