<svg fill="none" height="44" viewBox="0 0 62 44" width="62" xmlns="http://www.w3.org/2000/svg" xmlns:xlink="http://www.w3.org/1999/xlink"><clipPath id="a"><path d="m0 0h62v43.6568h-62z"/></clipPath><g clip-path="url(#a)"><path d="m61.9766 40.8546c-.014-.1577-.0343-.3216-.0607-.4855-.0234-.1498-.0515-.2997-.0842-.4417-.0327-.1421-.0685-.2794-.1075-.4027-.0389-.1233-.081-.2342-.1262-.3278-.0452-.0921-.0919-.167-.1418-.2154-.1916-.192-.4394-.2544-.7775-.2654-.2119-.0078-.4597.0063-.751.0203-.1761.0094-.3506.0141-.5251.0172-.4332.0078-.8586 0-1.2746-.0281-.4316-.0297-.8523-.0812-1.2621-.1545-.4191-.0765-.8289-.178-1.2231-.306-.3958-.1295-.7791-.2887-1.1484-.4776-.3599-.1842-.7058-.3996-1.0377-.6462-.3864-.2888-.7526-.6213-1.0985-1.0037.0888-.1139.1761-.2279.2633-.3418.4301-.5713.8399-1.1566 1.2294-1.7529.3911-.5994.7619-1.2081 1.111-1.8263.3521-.6243.6824-1.2565.9909-1.8933.3132-.6494.6031-1.3018.8679-1.9558.2727-.6743.5189-1.3471.737-2.0167.2275-.7009.4254-1.3955.5906-2.0791.176-.7305.3163-1.447.4175-2.1478.1107-.7664.1761-1.511.1948-2.2259.0203-.8179-.0234-1.5952-.1324-2.321-.1371-.9054-.3771-1.728-.7277-2.4444-.1028-.2092-.2134-.4105-.335-.601-.4596-.6696-1.0112-1.194-1.6142-1.5827-1.0112-.6509-2.1721-.9194-3.3126-.8398-.6124.0437-1.22.1873-1.7934.4262-.2805.117-.5532.2559-.815.4167.0047-.142.011-.2841.0141-.4245.028-1.0708.0202-2.101-.0452-3.07658-.0795-1.17068-.2446-2.26174-.5329-3.24823-.3724-1.27214-.9505-2.37101-1.8183-3.24043-.0047-.00468-.0078-.00781-.0125-.01249-.9069-.90376-2.1082-1.55621-3.4092-1.82001-1.2777-.259106-2.6504-.142039-3.9359.48232-.631.30594-1.2403.73518-1.8059 1.30179-.3521.35276-.6778.74455-.9832 1.16287-.617.84913-1.1421 1.82001-1.6002 2.84864-.4129.92718-.7728 1.90274-1.0969 2.87986-.3194.96156-.603 1.92456-.8726 2.84556-.1168.4011-.2306.7945-.3428 1.1769-.042.1436-.0872.2981-.134.4589-.0903-.5744-.1807-1.1348-.2742-1.6795-.0841-.4902-.1683-.9678-.2571-1.4329-.1137-.5979-.2337-1.1738-.363-1.72952-.1527-.6587-.3179-1.28619-.5018-1.88089-.3038-.98336-.6559-1.87464-1.0813-2.66133-.3132-.58066-.6669-1.10356-1.0704-1.56715-.3397-.39022-.709-.71645-1.1001-.98648-.9972-.6868-2.13-.99742-3.2363-1.00522-.8086-.00625-1.6033.14828-2.3185.43549-.2991.12019-.5889.26379-.8679.42768-.8304.48857-1.5784 1.166-2.253 1.97766-.5594.67275-1.0689 1.43759-1.5301 2.26175-.4145.74142-.7916 1.53124-1.1343 2.34603-.3273.77889-.6217 1.58118-.8882 2.38508-.2664.807-.5048 1.6155-.7167 2.4084-.0125.0453-.0234.089-.0359.1327 0-.0015 0-.0031 0-.0047-.0452-.3496-.0935-.7024-.1449-1.0536-.0654-.4401-.1371-.8819-.2181-1.3205-.0655-.359-.1356-.7164-.2135-1.0723-.1605-.73834-.3459-1.46415-.5656-2.16188-.1994-.63528-.4285-1.24715-.6887-1.82625-.2929-.65089-.6295-1.25964-1.0143-1.81064-.4379-.62592-.938-1.17848-1.5146-1.63426-.4503-.35589-.9442-.65402-1.49109-.88191-.17919-.07493-.35993-.14048-.54223-.19512-.7448-.22789-1.50673-.29969-2.25931-.23257-.7183.064-1.42726.25287-2.10661.55256-.36149.15921-.71363.34964-1.05486.56973-.28202.18262-.53912.36993-.77128.56192-.58119.47608-1.02214.97244-1.38051 1.44852-.34279.45578-.60924.89439-.85386 1.2815-.05298.08428-.109073.17169-.165166.26067-.316303.49948-.660652 1.05516-.7884201 1.55309-.0810233.31218-.0763489.60251.0716741.84133.04207.06868.099721.13736.166722.20291.067.06556.146465.13112.232163.19355.085697.06244.179186.12175.278907.17795.098163.05619.201.10926.3054.15609.10283.04682.20567.08897.30851.12643.10283.03746.20411.07024.30072.09521.0966.02654.19009.04527.27423.05932.0857.01249.16361.01873.23216.01561.30228-.00937.55782-.12019.78687-.29969.35525-.27941.64662-.72895.94423-1.23936.03428-.05931.06856-.12019.1044-.18106.20567-.35745.43472-.69617.6809-1.00366.27112-.33716.56405-.63841.87256-.89284.28982-.23881.5921-.43549.90217-.57909.32876-.15297.66532-.24662 1.00344-.2716.30384-.02185.60923.01405.91151.11395.2571.08585.51263.21852.76038.40583.12153.0921.24151.19512.35993.31218.21658.23414.41602.49793.60146.78513.296.46203.5531.98962.7775 1.57339.2057.53695.3849 1.12073.5422 1.74356.2415.9584.4301 2.0104.589 3.1249.162 1.1379.2929 2.3429.4129 3.5823.1589 1.6295.3038 3.3215.483 5.0073.1371 1.2784.2945 2.5537.494 3.7961-.1605.8616-.3023 1.6343-.4285 2.3289-.1683.9303-.3085 1.7185-.4223 2.3944-.2103 1.244-.3365 2.0979-.4035 2.7222-.1263 1.1816-.0374 1.5391.0919 2.1572.0327.1373.0685.2716.1075.4011.2945.999.7541 1.7576 1.2886 2.2524 1.4023 1.2971 3.3422.7758 4.1119-2.1103.1091-.409.1948-.8663.2509-1.3721.0171-.1763.0311-.3496.042-.5197.0499-.754.0452-1.4579-.0031-2.1681-.0483-.7087-.1386-1.4236-.2602-2.2025-.1028-.6524-.2275-1.3501-.3677-2.1259-.1044-.5713-.2166-1.1847-.335-1.8543.095-.5526.1932-1.1098.2945-1.6686.1418-.7883.2867-1.5812.4394-2.3711.1527-.7929.3101-1.5827.4752-2.3647.1636-.7789.335-1.5484.5126-2.3039.1808-.7695.3709-1.5219.5688-2.2508.2072-.7649.4238-1.5032.6528-2.2071.2431-.7524.4986-1.4657.7666-2.1322.293-.72584.6015-1.39391.9287-1.9933.3599-.66026.7417-1.23467 1.1483-1.70918.4176-.487.8601-.86474 1.3307-1.11761.4129-.22164.8461-.34495 1.3026-.359.0296 0 .0592-.00156.0873-.00156.4191 0 .7899.10926 1.1249.32935.5236.34496.9567.96463 1.34 1.87464.2727.64933.5189 1.44695.7557 2.39754.1636.66342.3241 1.40012.4815 2.21332.1262.6478.2524 1.344.3802 2.0901.1698.988.3428 2.0635.5266 3.2279.2665 1.6905.5532 3.5682.8773 5.6396-.0982.3793-.1964.7585-.2914 1.1332-.3288 1.294-.631 2.5474-.8819 3.6618-.2057.9163-.374 1.742-.4893 2.421-.1231.7726-.1792 1.475-.1792 2.1134 0 1.1114.1699 2.0245.4535 2.7628.4814 1.2581 1.287 2.0089 2.1237 2.3726.8585.3731 1.7498.3403 2.3559.0297 1.0315-.5292 1.4179-1.806 1.5753-2.9517.0997-.7227.1262-1.5297.1044-2.3788-.0203-.7321-.0748-1.4953-.1527-2.2617-.0888-.8882-.2057-1.7826-.3272-2.6411-.0873-.6181-.1761-1.2159-.2571-1.781-.1309-.9069-.2446-1.7279-.3007-2.3944.0748-.281.148-.5572.2197-.8288.2586-.9694.5064-1.8825.7572-2.7909.254-.9178.5095-1.8325.7853-2.7925.2525-.8788.5189-1.7997.8134-2.7987.0919-.3137.187-.6353.2851-.9662.1901-.6259.36-1.2019.5329-1.7544.2758-.8804.5625-1.69828.9567-2.54897.2197-.47451.4737-.95995.7791-1.47192.162-.26224.3163-.49637.4674-.70553.5142-.71333.9692-1.13009 1.4179-1.3533.5251-.26067 1.0424-.25755 1.6345-.15297.0904.01561.1808.03434.2743.05307.5391.11551.9738.36525 1.3244.73362.4066.42769.698 1.01615.9006 1.73416.1979.69929.31 1.525.3646 2.44749.0483.83355.0498 1.74825.0202 2.72375-.0264.8975-.0779 1.8466-.1417 2.8346-.0593.935-.1294 1.9059-.1948 2.897-.0655.9647-.1278 1.9496-.1776 2.9455-.0499.9911-.0857 1.9932-.0966 2.9907-.0125 1.0192.0015 2.0369.0529 3.039.053 1.0474.1465 2.0791.2945 3.0812.1512 1.024.3584 2.0167.6373 2.9657.2789.9506.631 1.856 1.0673 2.7004-.1854.1998-.3724.3949-.5625.5869-.444.4464-.9006.8679-1.3696 1.2628-.4783.4027-.9676.7757-1.4677 1.116-.5111.3465-1.0315.6603-1.5629.9319-.5406.2778-1.0891.5135-1.6469.7039-.5329.1811-1.072.32-1.6158.4137-.5687.0968-1.1437.142-1.7218.1327-.2617-.0047-.5235-.0203-.7868-.0484-.173-.0188-.3257-.0375-.4675-.0453-.3163-.0187-.5765.0125-.8725.2092-.0779.0515-.1512.1123-.2228.1795-.0701.0671-.1371.142-.1995.2232-.0623.0811-.1215.167-.176.256-.0546.0905-.1044.1841-.1481.2809-.0576.1233-.1075.2529-.148.3809-.0405.1295-.0732.2591-.0966.3871s-.0358.2529-.0389.3715c-.0032.1202.0031.2326.0218.3387.0483.2763.2321.4932.5126.6603.5827.3449 1.5831.4698 2.6613.4557.7619-.0093 1.5613-.0874 2.2796-.206.4285-.0702.8273-.1561 1.1701-.2482.3693-.1077.7339-.2294 1.0938-.3621.6996-.2576 1.3821-.5619 2.0474-.9085.6513-.3387 1.2871-.718 1.9041-1.1316.603-.4043 1.1904-.8429 1.7576-1.3112.5562-.4589 1.0953-.9443 1.6158-1.4547.0529-.0531.1059-.1062.1589-.1592.4316.4479.8881.8475 1.3649 1.2034.4815.359.9848.6728 1.5083.9444.5204.27 1.0611.4994 1.6174.6868.5438.1841 1.1047.3309 1.6796.4417.5563.1077 1.125.1811 1.7062.2248.5422.0405 1.0938.0546 1.6547.0437.0203 0 .039 0 .0593-.0016.7821-.0265 1.3337-.0734 1.7124-.1623.3505-.0828.5562-.2014.6668-.3746.0312-.0484.053-.1265.067-.2248.0141-.0999.0203-.2217.0187-.3575 0-.1358-.0093-.2872-.0233-.4448zm-10.7371-24.1362c.0607-.0687.1215-.1343.1854-.1983.3708-.3715.7728-.6087 1.167-.7195.508-.1436 1.005-.0796 1.4055.1763.0997.064.1932.139.2804.2264.1481.1483.2727.3262.3787.526.2088.3949.3397.8772.416 1.383.0654.4354.0919.8881.0919 1.322 0 .1249-.0015.2498-.0062.3778-.0171.5728-.0764 1.1722-.1698 1.7919-.0904.5884-.2135 1.1941-.3678 1.8122-.148.59-.3241 1.1925-.5282 1.8013-.1963.5869-.4176 1.1784-.6622 1.7716-.2384.5775-.497 1.1566-.7775 1.7326-.2758.565-.5703 1.1285-.8835 1.6842-.31.5494-.6388 1.0942-.9832 1.6265-.1262.1966-.257.3902-.3879.5822-.1325-.4105-.2509-.8289-.3537-1.2534-.1371-.5635-.2478-1.1379-.3381-1.7217-.1372-.8897-.226-1.8028-.2758-2.7285-.0499-.9193-.0624-1.8527-.0483-2.7924.014-.9412.0529-1.8887.1059-2.8346.0296-.5167.0623-1.0333.0982-1.5484.3537-.9303.899-2.1603 1.6547-3.0141z" fill="#fff"/></g></svg>