<svg width="50" height="62" viewBox="0 0 50 62" fill="none" xmlns="http://www.w3.org/2000/svg">
<g clip-path="url(#clip0_6076_39)">
<path d="M38.3292 47.4774V10.4663C38.6159 10.3619 38.9282 10.2446 39.2599 10.1167C40.06 9.80764 40.9715 9.43248 41.9107 9.01681C42.7708 8.63739 43.6523 8.22385 44.4974 7.79114C45.4131 7.32431 46.2838 6.83617 47.0305 6.35017C48.0832 5.66592 48.8876 4.98807 49.2192 4.37843C49.2492 4.32301 49.277 4.26759 49.3048 4.21216C49.4845 3.84126 49.5744 3.50021 49.5958 3.18899C49.6043 3.05257 49.6001 2.92041 49.5851 2.79464C49.5701 2.66888 49.5423 2.54951 49.5038 2.4344C49.4674 2.31929 49.4203 2.21058 49.3647 2.10826C49.3091 2.00595 49.247 1.90789 49.1786 1.81623C49.0759 1.67981 48.9582 1.55405 48.8341 1.4432C48.71 1.33236 48.5774 1.23217 48.4447 1.14691C48.3121 1.05951 48.1773 0.987038 48.0468 0.925221C47.9163 0.863405 47.7922 0.814378 47.6788 0.77814C47.2488 0.639586 46.8487 0.643849 46.4272 0.756824C45.8367 0.914563 45.2077 1.2876 44.4075 1.78639C43.7999 2.16582 43.0938 2.61772 42.2338 3.10373C41.5598 3.48528 40.7917 3.88603 39.8996 4.29103C39.1764 4.6193 38.3741 4.94757 37.4755 5.26944C36.731 5.53589 35.9201 5.79595 35.0365 6.04535C34.63 6.16045 34.2106 6.2713 33.7721 6.38214C33.3762 6.4802 32.9783 6.57186 32.5803 6.65499C31.7502 6.82978 30.9158 6.97047 30.0793 7.08131C29.2363 7.19215 28.3891 7.27315 27.544 7.32218C26.6903 7.37121 25.8367 7.39039 24.9873 7.37974C24.1293 7.36908 23.2735 7.32645 22.422 7.2561C21.5619 7.18363 20.7083 7.08344 19.8632 6.95128C19.0074 6.81912 18.1601 6.65712 17.3236 6.46741C16.4763 6.27556 15.6398 6.05387 14.8204 5.80448C13.9881 5.55295 13.1708 5.27157 12.3728 4.96249C11.5619 4.64914 10.7703 4.31022 10.0022 3.94358C9.22344 3.57268 8.46606 3.17194 7.73863 2.74775C7.00478 2.32143 6.30089 1.86952 5.62694 1.39418C5.28248 1.15117 4.94658 0.901774 4.61924 0.648112C4.30045 0.398714 3.96455 0.228185 3.62437 0.125868C3.1815 -0.0105553 2.73434 -0.0318714 2.31072 0.0406034C2.12672 0.0725775 1.94915 0.119473 1.77799 0.183421C1.60683 0.247369 1.44208 0.326239 1.28804 0.417898C1.134 0.509557 0.98851 0.614006 0.855861 0.731245C0.723212 0.848483 0.6034 0.974248 0.496425 1.11067C0.398009 1.23857 0.310289 1.37286 0.239686 1.51568C0.166943 1.6585 0.111316 1.80558 0.0706652 1.95905C0.0300147 2.11253 0.00648022 2.27027 6.17226e-05 2.43227C-0.00421727 2.59427 0.00861972 2.75841 0.0428517 2.92254C0.0941997 3.17194 0.276057 3.48102 0.575587 3.837C1.0527 4.40188 1.83361 5.07973 2.86913 5.80448C3.58372 6.3054 4.42027 6.82765 5.36379 7.35203C6.15754 7.79327 7.02618 8.23451 7.96114 8.6651C8.80196 9.05092 9.69627 9.42821 10.6377 9.78632C10.873 9.87585 11.1105 9.96325 11.3522 10.0506V51.8345C11.2217 51.8814 11.0912 51.9282 10.9629 51.9773C10.0493 52.3183 9.15712 52.6828 8.30346 53.0601C7.38989 53.463 6.52125 53.8829 5.71038 54.3093C4.78826 54.7953 3.9453 55.2877 3.20717 55.7737C2.23156 56.4174 1.4378 57.0505 0.887954 57.6388C0.331684 58.2335 0.0214567 58.7835 0.0214567 59.2546C0.0214567 59.3399 0.0364332 59.44 0.0642467 59.5466C0.0920602 59.6532 0.132711 59.7683 0.186198 59.8898C0.239686 60.0113 0.303871 60.1371 0.378753 60.265C0.453635 60.3929 0.539216 60.5208 0.631214 60.6487C0.759584 60.8256 0.907209 60.9982 1.06339 61.1581C1.22172 61.318 1.39288 61.4651 1.57045 61.5908C1.75017 61.7166 1.93631 61.8189 2.12886 61.8914C2.32142 61.9639 2.51611 62.0044 2.71295 62.0044C3.12587 62.0044 3.53023 61.8509 3.99023 61.5951C4.41171 61.3606 4.87812 61.0409 5.44081 60.6742C5.62266 60.557 5.80238 60.4398 5.98424 60.3247C6.69027 59.877 7.40059 59.4528 8.11518 59.0542C8.85759 58.6385 9.60427 58.2506 10.3574 57.8882C11.1276 57.5173 11.9064 57.1763 12.6894 56.8629C13.4853 56.5453 14.2855 56.2597 15.0964 56.0039C15.9094 55.7481 16.7309 55.5221 17.5632 55.3282C18.3891 55.1363 19.2256 54.9764 20.0707 54.8485C20.9051 54.7228 21.7481 54.629 22.6017 54.5693C23.4361 54.5096 24.2812 54.4819 25.137 54.484C25.9672 54.4862 26.808 54.5203 27.6616 54.5842C28.4853 54.646 29.3198 54.7356 30.167 54.8528C30.7896 54.9402 31.4165 55.0425 32.0519 55.1619C32.2616 55.2003 32.4648 55.2408 32.6659 55.2834C33.5517 55.4646 34.3754 55.6671 35.1435 55.8845C36.0228 56.1339 36.8294 56.4046 37.5718 56.686C38.4362 57.0143 39.2149 57.3575 39.9167 57.7028C40.7575 58.1163 41.4914 58.532 42.1418 58.9263C42.9548 59.4187 43.6373 59.8792 44.2342 60.2607C45.0558 60.7872 45.7147 61.1624 46.3288 61.2668C46.5919 61.3116 46.8465 61.3073 47.1011 61.2434C47.253 61.205 47.4071 61.1453 47.5611 61.0622C47.7152 60.9791 47.8735 60.8725 48.034 60.7424C48.1901 60.6146 48.3527 60.4632 48.5196 60.2842C48.6287 60.169 48.74 60.0411 48.8534 59.9026C48.9047 59.8322 48.9497 59.764 48.9946 59.698C49.0737 59.5765 49.1401 59.4571 49.1978 59.342C49.2535 59.2269 49.3005 59.1139 49.3348 59.0052C49.3711 58.8965 49.3947 58.7899 49.4118 58.6854C49.4268 58.581 49.4332 58.4787 49.431 58.3806C49.4225 58.1078 49.3455 57.8541 49.215 57.609C48.8363 56.9056 47.9912 56.2916 46.9663 55.6287C46.8487 55.552 46.7289 55.4752 46.6048 55.3985C45.9009 54.9509 45.1927 54.5352 44.4824 54.1494C43.6266 53.6826 42.7686 53.2584 41.9128 52.8747C41.0228 52.4739 40.1371 52.1158 39.2577 51.7982C38.9496 51.6852 38.6415 51.5808 38.3335 51.4763V47.4817L38.3292 47.4774ZM30.8773 49.7156C29.8653 49.5707 28.8961 49.4684 27.9826 49.4002C26.9342 49.3213 25.9586 49.285 25.075 49.2765C23.9432 49.2659 22.9633 49.3042 22.1695 49.3575C20.3638 49.479 19.5273 49.6837 20.1007 49.6112C19.8332 49.6453 19.5636 49.6837 19.2941 49.7263C18.4104 49.8627 17.5097 50.0418 16.6026 50.2549V11.5918C17.3985 11.773 18.2093 11.9371 19.0395 12.0799C19.9851 12.2398 20.9522 12.372 21.9363 12.47C22.897 12.5659 23.8726 12.6278 24.861 12.6533C25.8302 12.6789 26.8101 12.6683 27.8007 12.6171C28.772 12.5681 29.7498 12.4785 30.7361 12.3485C31.5149 12.2462 32.2958 12.114 33.0789 11.9542V50.0887C32.3257 49.9416 31.5898 49.818 30.8773 49.7156Z" fill="white"/>
</g>
<defs>
<clipPath id="clip0_6076_39">
<rect width="49.6" height="62" fill="white"/>
</clipPath>
</defs>
</svg>
