<svg width="62" height="47" viewBox="0 0 62 47" fill="none" xmlns="http://www.w3.org/2000/svg">
<g clip-path="url(#clip0_6076_66)">
<path d="M61.9889 39.4801C61.9119 38.5948 61.4732 38.0429 60.8961 37.4014C60.7577 37.2473 60.6131 37.09 60.4621 36.9187C60.3316 36.7708 60.2074 36.6309 60.0863 36.4925C59.7813 36.145 59.5045 35.8258 59.2514 35.5334C58.9369 35.1717 58.6586 34.8509 58.4101 34.571C58.0563 34.1732 57.7592 33.854 57.4981 33.6087C57.2497 33.3776 57.0343 33.2125 56.833 33.1103C56.5657 32.9719 56.3251 32.9452 56.0672 33.0175C55.9933 33.038 55.9194 33.0678 55.844 33.1056C55.7669 33.1417 55.6883 33.1873 55.6081 33.2392C55.5263 33.2927 55.443 33.3524 55.3534 33.42C55.2637 33.4877 55.1725 33.5631 55.0735 33.6433C55.0373 33.6748 55.0011 33.7062 54.9634 33.7377C54.9272 33.7723 54.8895 33.8084 54.8533 33.8446C54.7826 33.9169 54.715 33.9908 54.6552 34.0695C54.5923 34.1481 54.5373 34.2283 54.4917 34.3147C54.4461 34.4012 54.4083 34.4893 54.3848 34.5821C54.3313 34.788 54.38 35.0412 54.5011 35.3211C54.6002 35.5475 54.7433 35.7944 54.921 36.0491C55.1348 36.3604 55.3974 36.6844 55.6773 37.0083C55.844 37.2017 56.0185 37.3967 56.193 37.5854C55.9131 37.4973 55.638 37.3935 55.3691 37.2709C54.9666 37.0916 54.5782 36.8715 54.2087 36.612C53.6929 36.252 53.207 35.8148 52.7605 35.2959C52.3532 34.8211 51.9774 34.277 51.6409 33.6606C51.3296 33.0883 51.0497 32.4514 50.8075 31.747C50.6063 31.1589 50.4286 30.5252 50.2824 29.8412C50.2682 29.7689 50.2572 29.6966 50.2446 29.6258C50.1173 28.8947 50.0261 28.1431 49.9647 27.371C49.9034 26.6115 49.8704 25.8379 49.8594 25.0501C49.8484 24.2718 49.8594 23.484 49.8814 22.6884C49.905 21.8959 49.9427 21.0987 49.9867 20.2983C50.0323 19.4932 50.0858 18.6882 50.1377 17.8862C50.1927 17.067 50.2478 16.2509 50.2965 15.4474C50.3468 14.6093 50.3893 13.7823 50.4176 12.9725C50.4475 12.1092 50.4585 11.2648 50.4427 10.4488C50.4254 9.54462 50.3736 8.67508 50.2761 7.84799C50.1597 6.88096 49.982 5.97211 49.7163 5.13874C49.471 4.36354 49.1502 3.65439 48.7383 3.02385C48.5936 2.80371 48.4379 2.59458 48.2712 2.39803C47.5448 1.53321 46.6234 0.891667 45.6265 0.490703C44.5792 0.0692981 43.4518 -0.0863702 42.3779 0.0425672C41.9738 0.0928842 41.5775 0.180939 41.197 0.309876C40.491 0.553599 39.8494 0.941984 39.2661 1.44201C38.5553 2.05053 37.928 2.82573 37.3745 3.70156C36.909 4.43587 36.4955 5.2378 36.1213 6.07747C35.7738 6.85738 35.4624 7.66402 35.1778 8.47381C34.8948 9.28203 34.6385 10.0887 34.4026 10.867C34.1872 11.5809 33.9891 12.2696 33.8051 12.9096C33.7737 13.0165 33.7438 13.1203 33.7139 13.2241C33.6966 13.2822 33.6809 13.3388 33.6636 13.3954C33.5991 12.9898 33.5331 12.5731 33.4623 12.1485C33.401 11.7853 33.335 11.4189 33.2673 11.0478C33.151 10.4315 33.0236 9.80879 32.879 9.18769C32.7579 8.67351 32.6274 8.1609 32.4811 7.65773C32.2248 6.77247 31.9229 5.91079 31.5644 5.11043C31.1446 4.17485 30.6461 3.32104 30.0455 2.5993C30.0266 2.57729 30.0093 2.5537 29.9889 2.53011C29.2435 1.65586 28.3772 1.04105 27.4494 0.688826C26.3676 0.280001 25.2056 0.228111 24.053 0.54731C23.1175 0.805185 22.1913 1.30835 21.3233 2.05682C21.2148 2.14959 21.1111 2.24394 21.0057 2.34457C20.545 2.82258 20.0686 3.58048 19.5874 4.53651C19.2493 5.20792 18.9113 5.9784 18.5748 6.8165C18.2886 7.53037 18.0056 8.29299 17.7257 9.09177C17.4678 9.82765 17.2131 10.5918 16.963 11.3733C16.724 12.1249 16.4882 12.8923 16.2602 13.6628C16.1926 13.8923 16.125 14.125 16.0589 14.3562C16.0338 14.1046 16.0055 13.853 15.9772 13.5983C15.9316 13.1973 15.8828 12.7948 15.8278 12.3907C15.7633 11.9048 15.6894 11.4158 15.6092 10.9315C15.5086 10.3293 15.3938 9.73017 15.2617 9.14051C15.117 8.49897 14.9519 7.87001 14.7633 7.25991C14.518 6.47057 14.2318 5.71738 13.8937 5.01609C13.4739 4.14969 12.9786 3.36192 12.3858 2.69207C11.9691 2.21878 11.5068 1.80524 10.9879 1.46088C10.6923 1.27848 10.3967 1.12281 10.1026 0.992301C9.10573 0.553599 8.1277 0.419945 7.19526 0.504855C6.23137 0.59291 5.31938 0.913681 4.486 1.37754C3.72024 1.80366 3.02524 2.34929 2.41986 2.94366C1.8019 3.55218 1.27986 4.21259 0.882045 4.8447C0.38202 5.62933 0.0785452 6.3715 0.0140765 6.92499C-0.018944 7.19859 0.00778688 7.42502 0.0989865 7.59012C0.139869 7.66402 0.188614 7.73478 0.24522 7.79925C0.301827 7.86686 0.364723 7.93133 0.432337 7.98794C0.501523 8.04769 0.575426 8.1043 0.652474 8.15461C0.731094 8.2065 0.812859 8.25368 0.897769 8.29613C0.990541 8.34488 1.08489 8.38576 1.18237 8.42192C1.27986 8.45966 1.37735 8.48954 1.47642 8.5147C1.57548 8.53985 1.67139 8.55872 1.76731 8.5713C1.86323 8.58545 1.956 8.59174 2.04563 8.59174C2.26734 8.59174 2.46546 8.53985 2.64471 8.44865C3.16361 8.18606 3.53941 7.59169 3.97025 6.92027C4.26901 6.45484 4.5945 5.95482 5.01119 5.50196C5.35554 5.1293 5.7628 4.78966 6.26911 4.53179C6.36031 4.48462 6.45151 4.44059 6.55057 4.39971C6.88235 4.25976 7.19369 4.17642 7.4893 4.1434C7.9107 4.09466 8.29752 4.15284 8.64816 4.30064C9.03026 4.46103 9.37461 4.72834 9.68438 5.08685C10.1247 5.59159 10.4957 6.27873 10.8134 7.1011C11.0272 7.65302 11.219 8.26468 11.3889 8.92352C11.5697 9.62796 11.7301 10.3843 11.8716 11.1768C11.988 11.8293 12.0917 12.5055 12.1877 13.1942C12.3182 14.1376 12.4298 15.1047 12.532 16.0748C12.6892 17.5497 12.8229 19.0294 12.9581 20.421C13.1122 21.9745 13.2663 23.4195 13.4597 24.6303C13.411 24.8567 13.367 25.069 13.3276 25.2624C13.3166 25.3174 13.3056 25.3709 13.2962 25.4244C13.1673 26.0722 13.0132 26.8254 12.8591 27.6304C12.7144 28.3994 12.5729 29.2154 12.4581 30.0409C12.3355 30.9215 12.2458 31.8115 12.2207 32.6574C12.1971 33.4122 12.2254 34.1292 12.326 34.7755C12.5147 35.9894 12.9628 36.9485 13.8151 37.4092C14.1705 37.5995 14.5966 37.7049 15.1029 37.7049C16.6391 37.7049 17.5401 36.3777 17.9159 34.8619C18.0449 34.3478 18.1203 33.788 18.1565 33.2031C18.1942 32.5945 18.1895 31.9561 18.1534 31.3052C18.0779 29.9277 17.8672 28.4921 17.636 27.1524C17.114 24.124 17.0967 25.036 17.4049 23.701C17.5763 22.9588 17.7571 22.2056 17.9458 21.4477C18.1313 20.6993 18.3263 19.9492 18.5245 19.1992C18.7241 18.446 18.9301 17.6991 19.1377 16.9601C19.35 16.2022 19.5685 15.4584 19.7839 14.732C20.0119 13.9694 20.2399 13.2288 20.4664 12.5196C20.7101 11.7476 20.9522 11.0164 21.1897 10.3308C21.4601 9.54462 21.7212 8.82446 21.9696 8.18606C22.1583 7.69862 22.3391 7.25677 22.5089 6.8731C22.619 6.62623 22.7338 6.3888 22.858 6.16395C23.1316 5.66235 23.4382 5.22208 23.7669 4.873C24.1521 4.46575 24.5704 4.18114 25.0028 4.06321C25.3707 3.96415 25.7512 3.98302 26.1349 4.14969C26.4745 4.2975 26.8173 4.55695 27.1601 4.94848C27.168 4.95948 27.1774 4.96892 27.1853 4.97992C27.6444 5.51297 28.0265 6.20326 28.3504 6.98003C28.6602 7.7222 28.9165 8.53985 29.1335 9.37795C29.3127 10.0714 29.4637 10.7758 29.5958 11.4582C29.775 12.397 29.9181 13.2917 30.0423 14.0543C30.0533 14.1188 30.0628 14.1817 30.0738 14.2414C30.275 15.4757 30.4779 16.6645 30.6603 17.762C30.937 19.4288 31.1666 20.877 31.272 21.9305C31.2059 22.1789 31.143 22.4211 31.0817 22.6601C30.8191 23.6774 30.5911 24.602 30.393 25.4479C30.1477 26.5046 29.9527 27.4355 29.808 28.2657C29.5344 29.8067 29.4259 30.9985 29.4637 31.9703C29.4999 32.887 29.6634 33.6103 29.9433 34.255C30.2043 34.8604 30.5534 35.3588 30.9543 35.7425C32.662 37.3825 35.3413 37.0036 35.9923 33.8855C36.148 33.148 36.1967 32.2989 36.1779 31.3822C36.1637 30.6353 36.1024 29.846 36.0159 29.0362C35.8948 27.9135 35.7219 26.7546 35.5458 25.6225C34.9199 21.5877 34.9781 22.3283 35.2722 21.2543C35.4624 20.5562 35.6621 19.8282 35.865 19.0687C35.8791 19.0184 35.8933 18.9681 35.9058 18.9177C36.1118 18.1504 36.3225 17.3658 36.5364 16.5764C36.7471 15.7949 36.9641 15.0119 37.1842 14.2351C37.4075 13.4505 37.6371 12.6769 37.8713 11.9237C38.1119 11.1516 38.3588 10.4047 38.6135 9.69557C38.884 8.93767 39.1623 8.22537 39.4485 7.5744C39.7677 6.84952 40.0994 6.20168 40.4407 5.65449C40.7268 5.19692 41.0209 4.8101 41.3244 4.50663C41.425 4.406 41.5288 4.31637 41.6373 4.23303C41.9911 3.96415 42.392 3.78332 42.8087 3.70627C43.2867 3.61508 43.7883 3.66068 44.2648 3.86509C44.6846 4.0412 45.0855 4.3431 45.4362 4.77708C45.7145 5.12144 45.9598 5.55228 46.1611 6.07275C46.1831 6.1325 46.2051 6.19382 46.2271 6.25357C46.4331 6.84637 46.5715 7.52565 46.6595 8.27726C46.7397 8.97069 46.7775 9.7223 46.7837 10.5242C46.7885 11.2648 46.768 12.0447 46.7303 12.8608C46.6957 13.6282 46.6469 14.4254 46.5903 15.2446C46.5385 16.0339 46.4787 16.8406 46.4237 17.6645C46.3686 18.4696 46.3136 19.2873 46.2696 20.1128C46.224 20.9336 46.1878 21.7638 46.1674 22.594C46.1469 23.4337 46.1422 24.2749 46.1595 25.1099C46.1784 25.9684 46.2224 26.8238 46.2979 27.6635C46.3765 28.5424 46.4881 29.4073 46.6454 30.2516C46.8105 31.1448 47.0275 32.0175 47.3011 32.854C47.5935 33.7455 47.952 34.6025 48.3923 35.4076C48.8499 36.2488 49.3939 37.0382 50.0402 37.7615C50.6692 38.4675 51.3956 39.1137 52.2306 39.6845C52.7542 40.043 53.3234 40.3732 53.9382 40.6704C54.042 40.7207 54.1458 40.7679 54.2511 40.8135C55.0357 41.15 55.8597 41.3418 56.6946 41.4157C56.6695 41.444 56.6427 41.4739 56.6192 41.5006C56.2952 41.8607 56.0122 42.1768 55.7653 42.4582C55.487 42.7759 55.2543 43.0495 55.064 43.2916C54.8565 43.5542 54.6992 43.7791 54.5892 43.9803C54.336 44.4426 54.3266 44.7775 54.5011 45.1675C54.5231 45.2162 54.5483 45.2666 54.5766 45.3137C54.6033 45.3625 54.6332 45.4097 54.6662 45.4568C54.6977 45.504 54.7323 45.5496 54.77 45.5952C54.8062 45.6408 54.8439 45.6848 54.8848 45.7289C54.9886 45.8421 55.1034 45.9458 55.2244 46.0402C55.3471 46.1345 55.4729 46.2163 55.5987 46.2855C55.726 46.3547 55.8518 46.4097 55.9745 46.4459C56.0955 46.4836 56.2103 46.504 56.3157 46.504C56.4871 46.504 56.6616 46.46 56.8377 46.3751C57.0641 46.2682 57.3 46.0984 57.55 45.8719C57.8519 45.5999 58.179 45.2477 58.5438 44.831C58.7686 44.5747 59.0108 44.2932 59.2702 43.9913C59.3033 43.952 59.3363 43.9143 59.3709 43.875C59.6743 43.5228 59.9464 43.2161 60.1917 42.9425C60.5093 42.584 60.7813 42.2837 61.0077 42.0164C61.7122 41.1877 61.9968 40.6736 61.9968 39.771C61.9968 39.6735 61.9921 39.5807 61.9858 39.4911L61.9889 39.4801Z" fill="white"/>
</g>
<defs>
<clipPath id="clip0_6076_66">
<rect width="62" height="46.4929" fill="white"/>
</clipPath>
</defs>
</svg>
