<svg width="62" height="38" viewBox="0 0 62 38" fill="none" xmlns="http://www.w3.org/2000/svg">
<g clip-path="url(#clip0_6076_69)">
<path d="M0.601339 28.608C0.731206 28.7148 0.875305 28.7948 1.02652 28.8517C1.17951 28.9105 1.33962 28.9478 1.50151 28.9745C1.77192 29.0172 2.04767 29.0261 2.29851 29.0368C2.40169 29.0403 2.51199 29.0457 2.62584 29.0492C2.98342 29.0617 3.39971 29.0706 3.86225 29.0795C4.30878 29.0884 4.798 29.0955 5.32459 29.1008C5.84939 29.1061 6.40978 29.1115 6.99685 29.115C7.82587 29.1204 8.70469 29.1222 9.6102 29.1239C10.5157 29.1239 11.4479 29.1239 12.3783 29.1222C13.3568 29.1204 14.3352 29.115 15.2834 29.1097C16.2317 29.1044 17.1496 29.0973 18.0089 29.0901C19.7452 29.0741 21.2378 29.0546 22.2376 29.035C22.8282 29.0225 23.248 29.0119 23.4419 28.9994C23.5042 28.9958 23.5433 28.9923 23.5576 28.9887C23.8138 28.9265 23.9792 28.7948 24.0717 28.6116C24.2514 28.2576 24.1696 27.7132 23.9739 27.0959C23.7782 26.4786 23.4669 25.7919 23.1893 25.155C23.1146 24.9842 23.0434 24.8188 22.9758 24.6569C22.4688 23.44 22.0703 22.4829 21.759 21.5276C21.5544 20.8996 21.3872 20.2734 21.2502 19.5743C21.115 18.8769 21.01 18.1084 20.9318 17.1957C20.9033 16.8631 20.8784 16.5108 20.8571 16.1372C20.8215 15.5341 20.7983 15.004 20.7877 14.5326C20.7681 13.6804 20.7895 13.0222 20.8571 12.4671C20.9567 11.6435 21.1559 11.0493 21.4655 10.391C21.558 10.1936 21.6612 9.99077 21.775 9.77551C22.0205 9.30763 22.2963 8.87 22.5987 8.46083C23.0346 7.87376 23.5238 7.34895 24.0557 6.88819C24.5876 6.42743 25.164 6.02893 25.7707 5.6927C26.4111 5.33868 27.0871 5.05226 27.7845 4.837C28.4819 4.61996 29.2006 4.47409 29.9264 4.39403C30.67 4.31398 31.4225 4.30508 32.1697 4.36735C32.9151 4.42961 33.657 4.56304 34.3757 4.76762C35.0837 4.96865 35.7722 5.23906 36.4269 5.57529C37.0816 5.9133 37.7024 6.31891 38.277 6.79035C38.8143 7.23332 39.3106 7.735 39.7536 8.29538C40.1966 8.85577 40.5862 9.47486 40.9117 10.1527C41.2071 10.7664 41.449 11.4282 41.6305 12.138C41.8119 12.8478 41.9311 13.6039 41.9809 14.408C41.9898 14.5575 41.9969 14.7069 42.0023 14.8599C42.0201 15.4897 41.9934 16.1159 41.9293 16.7332C41.8493 17.4999 41.7141 18.2507 41.5397 18.9801C41.2924 20.0208 40.9669 21.0135 40.6218 21.9314C40.2766 22.8494 39.9102 23.6909 39.5757 24.4309C39.2235 25.2155 38.9086 25.8844 38.6969 26.4074C38.5261 26.8326 38.4211 27.1599 38.4211 27.3752C38.4211 27.4926 38.4407 27.6029 38.471 27.7007C38.5599 27.9907 38.7431 28.1882 38.7841 28.2291C38.8606 28.3056 38.962 28.3643 39.2235 28.4088C39.6131 28.4746 40.3585 28.5102 41.9026 28.5262C42.5004 28.5315 43.2173 28.5351 44.0784 28.5369C44.9412 28.5369 45.9481 28.5369 47.1258 28.5369C47.9192 28.5369 48.7874 28.5333 49.7427 28.5315C50.312 28.5315 50.9115 28.528 51.5431 28.5262C51.9309 28.5262 52.3027 28.5262 52.6603 28.5262C53.8896 28.5262 54.9374 28.5351 55.8358 28.5422C56.7342 28.5475 57.4832 28.5529 58.1094 28.5458C58.6466 28.5404 59.0931 28.5262 59.4703 28.4977C59.8474 28.4693 60.1516 28.4283 60.406 28.3661C60.6622 28.3038 60.8633 28.222 61.0305 28.1152C61.1977 28.0085 61.3294 27.8751 61.445 27.7096C61.509 27.6189 61.566 27.5086 61.614 27.3841C61.662 27.2595 61.7029 27.1226 61.7332 26.9767C61.7634 26.8308 61.783 26.6742 61.7919 26.5141C61.8008 26.354 61.7972 26.1904 61.7794 26.0267C61.767 25.9004 61.7456 25.7741 61.7154 25.6513C61.6852 25.5286 61.6478 25.4076 61.5998 25.292C61.5517 25.1763 61.4948 25.0643 61.4272 24.9611C61.3596 24.8561 61.2831 24.76 61.1941 24.6711C61.1248 24.6017 61.0198 24.5412 60.8828 24.4861C60.7458 24.4309 60.5768 24.3829 60.3794 24.3402C60.0965 24.2797 59.7549 24.2317 59.3671 24.1925C58.9793 24.1534 58.547 24.1267 58.0809 24.1054C57.2928 24.0716 56.4104 24.0591 55.4907 24.0591C54.5709 24.0591 53.6156 24.0716 52.6834 24.084C51.6142 24.0983 50.5771 24.116 49.6573 24.1178C48.7376 24.1196 47.9388 24.1071 47.3482 24.0627C47.0013 24.0378 46.7255 24.0004 46.5405 23.9506C46.4782 23.9328 46.4249 23.915 46.384 23.8955C46.2221 23.8154 46.0833 23.7353 45.9623 23.6535C45.836 23.5663 45.7311 23.4792 45.6457 23.3867C45.5603 23.2941 45.4944 23.1999 45.4446 23.1002C45.3842 22.981 45.3504 22.853 45.3343 22.716C45.3183 22.579 45.3219 22.4331 45.3397 22.2766C45.3735 21.9759 45.4624 21.6308 45.571 21.2252C45.5852 21.1736 45.5994 21.1202 45.6136 21.0651C45.699 20.7502 45.7773 20.4406 45.8485 20.1329C46.1011 19.0512 46.2719 18.0141 46.3679 17.0178C46.464 16.0216 46.4871 15.068 46.4409 14.1554C46.384 13.0293 46.2256 11.9672 45.9748 10.971C45.7239 9.97476 45.3842 9.04612 44.9661 8.1833C44.4893 7.20307 43.9129 6.30824 43.2547 5.50057C42.5965 4.6929 41.8546 3.97241 41.0505 3.34086C40.2393 2.70398 39.3622 2.15605 38.4407 1.69884C37.5192 1.24164 36.5514 0.876944 35.5587 0.602977C34.5767 0.332569 33.5698 0.15289 32.5558 0.0639396C31.5417 -0.0250105 30.5206 -0.0232315 29.5101 0.0692766C28.4783 0.165343 27.4589 0.355696 26.4716 0.645673C25.4842 0.933872 24.5289 1.31992 23.6234 1.8038C22.7108 2.29303 21.8497 2.8801 21.0616 3.57035C20.2735 4.26061 19.5584 5.05048 18.9375 5.94354C18.3842 6.73698 17.9057 7.61224 17.5143 8.56935C17.1229 9.52645 16.8187 10.5636 16.6177 11.6844C16.4594 12.5703 16.3633 13.5061 16.3384 14.4952C16.3135 15.4843 16.3597 16.5233 16.4843 17.6156C16.5661 18.3396 16.6835 19.0886 16.8365 19.8589C16.9895 20.6292 17.1799 21.4226 17.4076 22.241C17.4076 22.2463 17.4111 22.2517 17.4111 22.257C17.4485 22.3904 17.4787 22.6573 17.4681 22.9544C17.4627 23.1056 17.4467 23.2657 17.4165 23.4187C17.3862 23.5717 17.34 23.7175 17.2741 23.8439C17.2724 23.8474 17.2706 23.8528 17.267 23.8563C17.2137 23.9559 17.1621 24.0449 17.1016 24.1232C17.0393 24.205 16.9682 24.2762 16.8774 24.3366C16.696 24.4576 16.4362 24.5377 16.0039 24.5928C15.6695 24.6355 15.2318 24.6604 14.6483 24.6747C14.0648 24.6889 13.3354 24.6942 12.4192 24.6924C11.7397 24.6924 10.9587 24.6889 10.0567 24.6835C9.15478 24.68 8.13185 24.6747 6.97194 24.6729C6.48806 24.6729 5.97926 24.6711 5.44556 24.6711C4.91186 24.6711 4.35325 24.6711 3.76796 24.6711C3.76085 24.6711 3.75551 24.6711 3.74839 24.6711C3.25383 24.6711 2.80018 24.6693 2.39279 24.6853C1.98007 24.7013 1.61359 24.7369 1.30227 24.8134C1.13682 24.8543 0.987382 24.9059 0.852178 24.9735C0.716974 25.0411 0.59956 25.123 0.498156 25.2261C0.421659 25.3026 0.355836 25.3934 0.297129 25.4983C0.238422 25.6015 0.190389 25.7171 0.149472 25.8417C0.108555 25.9644 0.076533 26.0979 0.051627 26.2331C0.026721 26.37 0.0107099 26.5106 0.00181493 26.6511C-0.00352207 26.7383 -0.00708008 26.8255 -0.00708008 26.9144C-0.00708008 27.055 -0.00174307 27.1866 0.0107099 27.3076C0.030279 27.5211 0.067638 27.7061 0.119229 27.8697C0.172599 28.0387 0.240201 28.1828 0.320256 28.3056C0.400311 28.4283 0.492819 28.5297 0.594223 28.6134L0.601339 28.608Z" fill="white"/>
<path d="M61.9857 35.0571C61.9751 34.9539 61.9573 34.8507 61.9341 34.7511C61.911 34.6497 61.8843 34.5501 61.8505 34.454C61.8185 34.3579 61.7811 34.2636 61.7402 34.1729C61.6993 34.0822 61.6566 33.9968 61.6086 33.915C61.5036 33.7335 61.3987 33.5841 61.283 33.4595C61.1692 33.335 61.0464 33.2372 60.913 33.1589C60.6212 32.9899 60.2654 32.9169 59.7922 32.8885C59.319 32.86 58.7248 32.8742 57.9563 32.8778C57.8816 32.8778 57.8033 32.8778 57.725 32.8778C57.3087 32.8778 56.8942 32.8778 56.4779 32.876C55.9852 32.876 55.4924 32.8742 54.9996 32.8725C54.5068 32.8725 54.014 32.8707 53.5212 32.8689C53.0285 32.8689 52.5357 32.8671 52.0429 32.8653C51.5501 32.8653 51.0573 32.8636 50.5645 32.8618C50.0718 32.86 49.579 32.86 49.0862 32.8582C48.5934 32.8582 48.1006 32.8565 47.6078 32.8547C47.115 32.8547 46.6223 32.8529 46.1295 32.8511C45.6367 32.8511 45.1439 32.8493 44.6511 32.8476C44.1584 32.8476 43.6656 32.8458 43.1728 32.844C42.68 32.844 42.1872 32.8422 41.6944 32.8404C41.2016 32.8404 40.7089 32.8387 40.2161 32.8369C39.7233 32.8369 39.2305 32.8351 38.7377 32.8333C38.2449 32.8333 37.7522 32.8315 37.2594 32.8298C36.7666 32.8298 36.2738 32.828 35.781 32.8262C35.2882 32.8262 34.7955 32.8244 34.3027 32.8227C33.8099 32.8227 33.3171 32.8209 32.8243 32.8191C32.634 32.8191 32.4454 32.8191 32.255 32.8191C31.9491 32.8191 31.6466 32.8191 31.3442 32.8191C30.8336 32.8191 30.3337 32.8191 29.8409 32.8191C29.3482 32.8191 28.8643 32.8191 28.3875 32.8191C27.8751 32.8191 27.3735 32.8191 26.8807 32.8191C26.3879 32.8191 25.904 32.8191 25.4308 32.8191C24.9167 32.8191 24.4132 32.8191 23.9204 32.8191C23.4276 32.8191 22.9455 32.8191 22.4741 32.8191C21.9564 32.8191 21.4512 32.8191 20.9584 32.8191C20.4656 32.8191 19.9853 32.8191 19.5156 32.8209C18.9944 32.8209 18.4874 32.8226 17.9946 32.8244C17.5018 32.8244 17.0232 32.8262 16.5589 32.828C16.0306 32.828 15.5218 32.8315 15.029 32.8333C14.5362 32.8351 14.0612 32.8369 13.6022 32.8387C13.065 32.8404 12.5508 32.844 12.058 32.8458C11.5653 32.8493 11.0956 32.8511 10.6455 32.8547C10.0922 32.8582 9.56922 32.8618 9.07821 32.8671C8.58543 32.8707 8.12289 32.876 7.68881 32.8814C7.09818 32.8885 6.56092 32.8956 6.06992 32.9027C5.57892 32.9098 5.13416 32.9187 4.73211 32.9276C3.99205 32.9436 3.39608 32.9632 2.91219 32.9845C2.4283 33.0059 2.06005 33.029 1.77541 33.0539C1.32176 33.0948 1.08338 33.1411 0.941057 33.1945C0.798737 33.2478 0.752483 33.3065 0.68666 33.3724C0.585257 33.4738 0.499864 33.5894 0.426925 33.7175C0.355765 33.8438 0.297058 33.9826 0.252583 34.1267C0.208108 34.2708 0.176086 34.4238 0.156517 34.5785C0.136948 34.7333 0.129832 34.8916 0.131611 35.0482C0.135169 35.219 0.15118 35.3898 0.179644 35.5552C0.208108 35.7206 0.247246 35.879 0.295279 36.0266C0.345091 36.1743 0.403798 36.3113 0.4714 36.4305C0.539003 36.5514 0.6155 36.6546 0.699113 36.7382C0.786284 36.8254 0.898361 36.8983 1.06737 36.9588C1.23637 37.0193 1.4623 37.0673 1.77541 37.1065C2.0725 37.1421 2.45143 37.1705 2.93532 37.1919C3.41921 37.2132 4.00984 37.2257 4.73389 37.2346C5.13772 37.2399 5.58247 37.2435 6.07348 37.2452C6.56448 37.247 7.10174 37.2488 7.69059 37.2488C8.12467 37.2488 8.58721 37.2488 9.07999 37.2488C9.57277 37.2488 10.094 37.2488 10.6473 37.247C11.0974 37.247 11.567 37.2453 12.0598 37.2435C12.5526 37.2435 13.0667 37.2417 13.604 37.2399C14.063 37.2399 14.538 37.2399 15.0308 37.2381C15.5235 37.2381 16.0341 37.2381 16.5607 37.2364C17.025 37.2364 17.5036 37.2364 17.9963 37.2364C18.4891 37.2364 18.9961 37.2364 19.5174 37.2364C19.9959 37.2364 20.487 37.2364 20.9922 37.2364C21.0438 37.2364 21.0971 37.2364 21.1505 37.2364C21.597 37.2364 22.0382 37.2364 22.4759 37.2364C22.9811 37.2364 23.481 37.2364 23.9738 37.2364C24.4666 37.2364 24.9522 37.2364 25.4326 37.2364C25.9396 37.2364 26.4395 37.2364 26.9323 37.2381C27.4251 37.2381 27.9107 37.2381 28.3893 37.2399C28.8981 37.2399 29.398 37.2417 29.8908 37.2435C30.3835 37.2435 30.8692 37.2452 31.346 37.247C31.8566 37.247 32.3582 37.2488 32.851 37.2506C33.3438 37.2506 33.8277 37.2524 34.3027 37.2541C34.815 37.2541 35.3185 37.2559 35.8113 37.2577C36.3041 37.2577 36.7879 37.2613 37.2612 37.2613C37.7771 37.2613 38.2805 37.2648 38.7733 37.2666C39.2661 37.2666 39.7482 37.2702 40.2179 37.2719C40.7356 37.2719 41.2426 37.2755 41.7354 37.2773C42.2281 37.2773 42.7085 37.2808 43.1763 37.2826C43.6994 37.2826 44.2082 37.2862 44.7009 37.2879C45.1937 37.2879 45.6705 37.2915 46.1348 37.2933C46.665 37.2933 47.1755 37.2968 47.6683 37.2968C48.1611 37.2968 48.6343 37.2986 49.0915 37.3004C49.6323 37.3004 50.1483 37.3022 50.641 37.304C51.1338 37.304 51.6017 37.304 52.0482 37.304C52.6086 37.304 53.1334 37.304 53.6262 37.3022C54.119 37.3022 54.578 37.2986 55.0049 37.2968C55.6116 37.2933 56.1559 37.2879 56.6469 37.2791C57.138 37.2719 57.5738 37.263 57.9616 37.2506C58.8209 37.2257 59.4489 37.1901 59.9167 37.1403C60.3846 37.0905 60.6942 37.0282 60.9183 36.9482C61.066 36.8948 61.1781 36.8361 61.2724 36.7685C61.3684 36.7009 61.4467 36.6244 61.5321 36.539C61.6335 36.4376 61.7153 36.3273 61.7811 36.2116C61.847 36.0942 61.8968 35.9715 61.9324 35.8434C61.9679 35.7153 61.9893 35.5837 61.9964 35.4485C62.0053 35.315 62 35.178 61.9857 35.0428V35.0571Z" fill="white"/>
</g>
<defs>
<clipPath id="clip0_6076_69">
<rect width="62" height="37.3199" fill="white"/>
</clipPath>
</defs>
</svg>
