<svg width="62" height="52" viewBox="0 0 62 52" fill="none" xmlns="http://www.w3.org/2000/svg">
<g clip-path="url(#clip0_6076_42)">
<path d="M1.80163 28.0798C2.49166 29.1612 3.32898 30.0763 4.27122 30.8289C5.24574 31.6093 6.33123 32.2114 7.47725 32.6393C8.63739 33.071 9.85806 33.3226 11.0888 33.3939C12.3297 33.4652 13.5806 33.3503 14.7871 33.0532C15.9897 32.7581 17.1498 32.2788 18.2131 31.6153C19.2481 30.9715 20.1904 30.1535 20.9954 29.1632C21.7379 28.2482 22.3614 27.1845 22.8274 25.9724C22.896 25.7922 22.9646 25.6099 23.0272 25.4218C23.3359 24.3859 23.5054 23.3797 23.5578 22.4092C23.6264 21.1337 23.4852 19.9195 23.1745 18.7906C22.8395 17.5744 22.3089 16.4554 21.6249 15.4551C21.2698 14.9342 20.8723 14.445 20.4406 13.9914C20.0189 13.5497 19.5629 13.1417 19.0807 12.7694C18.1001 12.0147 17.0065 11.4146 15.8525 10.9967C15.2351 10.7729 14.6015 10.6006 13.9579 10.4857C13.4313 10.3906 12.9007 10.3332 12.366 10.3153C12.8704 9.90535 13.3909 9.51715 13.9297 9.15271C14.6842 8.63972 15.4711 8.17228 16.2822 7.75239C17.1135 7.32258 17.969 6.94428 18.8466 6.62143C19.1594 6.50656 19.4761 6.39762 19.7949 6.29661C20.3276 6.12627 20.8945 5.9698 21.4877 5.82719C22.3593 5.61526 23.2895 5.43304 24.266 5.27855C25.182 5.13397 26.1364 5.01315 27.1189 4.92006C28.0612 4.83093 29.0276 4.76556 30.0062 4.72595C30.9646 4.68832 31.933 4.67247 32.9055 4.68436C33.872 4.69426 34.8405 4.72991 35.8008 4.79131C36.7733 4.85271 37.7358 4.94184 38.678 5.0587C39.6525 5.17754 40.6028 5.32807 41.5208 5.50633C42.4893 5.69449 43.4215 5.9183 44.2991 6.17579C45.1264 6.41743 45.9092 6.69076 46.6295 6.99578C46.7425 7.03143 46.8555 7.07104 46.9685 7.11066C47.8502 7.41964 48.6976 7.80983 49.5087 8.26736C50.3016 8.71498 51.0623 9.22797 51.7886 9.79047C52.4928 10.3352 53.1646 10.9254 53.8062 11.5493C54.4337 12.1593 55.031 12.8011 55.5979 13.4626C55.8784 13.7914 56.1528 14.1222 56.4191 14.4589C56.4917 14.552 56.5664 14.645 56.639 14.7381C56.8488 15.0075 57.0163 15.2274 57.1757 15.4036C57.5167 15.7839 57.8092 15.9602 58.3681 16.0038C58.4589 16.0117 58.5598 16.0157 58.6688 16.0196C58.7757 16.0216 58.8907 16.0236 59.0118 16.0196C59.1308 16.0176 59.2559 16.0117 59.383 16.0038C59.5101 15.9959 59.6392 15.984 59.7664 15.9681C59.9459 15.9463 60.1275 15.9186 60.301 15.883C60.4745 15.8473 60.64 15.8017 60.7933 15.7483C60.9467 15.6948 61.0859 15.6314 61.2029 15.5561C61.3219 15.4829 61.4208 15.3977 61.4914 15.3006C61.6206 15.1263 61.6367 14.7916 61.5318 14.338C61.4047 13.7894 61.098 13.0645 60.5976 12.2326C60.2768 11.6998 59.8773 11.1235 59.3931 10.5194C58.7676 9.74096 58.005 8.91899 57.091 8.09108C56.3283 7.39983 55.4607 6.7066 54.4842 6.0312C53.6307 5.44097 52.6945 4.8646 51.6696 4.31596C50.7536 3.82674 49.7669 3.3593 48.7097 2.92752C47.7493 2.53535 46.7304 2.17091 45.651 1.84411C45.3907 1.76488 45.1264 1.68763 44.858 1.61237C44.1276 1.40836 43.3468 1.2202 42.5256 1.04986C41.5269 0.843877 40.4676 0.663638 39.364 0.513108C38.339 0.374463 37.2778 0.261566 36.1903 0.176398C35.1491 0.0951912 34.0859 0.0417136 33.0105 0.0179458C31.9572 -0.00582199 30.8939 -0.00384134 29.8286 0.0318104C28.7653 0.0654814 27.702 0.130843 26.6488 0.227895C25.5755 0.326927 24.5142 0.459631 23.4751 0.629967C22.3896 0.806245 21.3303 1.02412 20.3074 1.28358C19.4418 1.50343 18.6005 1.753 17.7975 2.03623C17.5856 2.11149 17.3758 2.18676 17.17 2.264C16.1127 2.65617 15.118 3.07607 14.1798 3.52568C13.1549 4.01688 12.1965 4.54373 11.3007 5.10426C10.3362 5.70835 9.44242 6.35207 8.60914 7.03737C7.74156 7.75239 6.94055 8.51097 6.19604 9.31512C5.44952 10.1232 4.76352 10.9749 4.12595 11.8741C3.50653 12.7456 2.93554 13.6607 2.40087 14.6193C2.24147 14.9045 2.08612 15.1937 1.93278 15.4868C1.57364 16.1741 1.24678 16.8673 0.968345 17.5705C0.524465 18.6876 0.199625 19.8284 0.0684786 21.0069C-0.0626679 22.1874 -0.00012111 23.4094 0.326736 24.685C0.461918 25.2138 0.63947 25.7506 0.871499 26.2992C1.13984 26.9389 1.4546 27.5331 1.80768 28.0857L1.80163 28.0798ZM5.12871 21.5437C5.16705 21.2565 5.22758 20.9633 5.31434 20.6682C5.44347 20.2404 5.5847 19.8165 5.74208 19.4006C6.05279 18.5727 6.41597 17.7705 6.82555 16.9961C6.85581 16.9386 6.88809 16.8812 6.91836 16.8238C7.94735 16.0473 9.23663 15.473 10.5965 15.2274C11.7809 15.0134 13.0197 15.0471 14.1819 15.4175C14.8779 15.6374 15.5458 15.978 16.1612 16.4573C16.3488 16.6039 16.5324 16.7624 16.71 16.9347C17.0671 17.2813 17.3838 17.6537 17.6582 18.0419C18.09 18.6559 18.4169 19.3154 18.6368 19.9948C18.8688 20.7177 18.9798 21.4644 18.9596 22.2072C18.9394 22.9559 18.7861 23.7006 18.4935 24.4057C18.2212 25.0653 17.8257 25.6931 17.3052 26.2655C17.1276 26.4616 16.9339 26.6498 16.7261 26.83C16.367 27.141 15.9937 27.4064 15.6063 27.6282C14.9546 28.0026 14.2706 28.2561 13.5786 28.3987C12.8603 28.5472 12.134 28.5789 11.4217 28.5076C10.6934 28.4343 9.97912 28.2541 9.31128 27.9827C8.63941 27.7094 8.0099 27.345 7.45505 26.9053C6.90625 26.4695 6.42807 25.9605 6.04674 25.394C5.67348 24.8375 5.39504 24.2235 5.23363 23.5679C5.07827 22.9281 5.03389 22.2507 5.12871 21.5456V21.5437Z" fill="white"/>
<path d="M61.8226 27.7311C61.5885 26.4496 61.1325 25.2731 60.5051 24.2214C59.8574 23.134 59.0261 22.1793 58.0637 21.3792C57.1114 20.5869 56.034 19.9452 54.8799 19.4757C53.7359 19.0103 52.5172 18.7132 51.2764 18.6043C50.0335 18.4953 48.7664 18.5765 47.5276 18.8657C46.3291 19.145 45.1589 19.6203 44.0593 20.3116C43.3349 20.7671 42.6409 21.3118 41.9932 21.9595C41.7713 22.1793 41.5312 22.4507 41.285 22.7636C40.6535 23.5658 39.9796 24.6532 39.451 25.9287C39.0071 27.0002 38.6661 28.2025 38.541 29.482C38.426 30.6565 38.4946 31.8924 38.8316 33.1482C39.1322 34.2672 39.6467 35.4002 40.4356 36.5173C40.8654 37.1253 41.3778 37.7274 41.9811 38.3197C42.3039 38.6366 42.6429 38.9317 42.996 39.207C43.908 39.918 44.9107 40.4865 45.966 40.8985C46.7891 41.2193 47.6426 41.4471 48.5102 41.5719C49.0106 41.6432 49.513 41.6808 50.0174 41.6848C49.3415 42.2136 48.6272 42.7127 47.8767 43.1742C47.0999 43.6516 46.2847 44.0913 45.4373 44.4874C44.596 44.8816 43.7183 45.2341 42.8104 45.5411C42.6469 45.5966 42.4835 45.65 42.3201 45.7035C41.6442 45.9174 40.9158 46.1135 40.1451 46.2858C39.2593 46.4859 38.3171 46.6582 37.3325 46.8008C36.4064 46.9355 35.4419 47.0444 34.4553 47.1276C33.505 47.2068 32.5325 47.2623 31.5479 47.292C30.9809 47.3098 30.41 47.3178 29.837 47.3178C29.4274 47.3178 29.0259 47.3138 28.6324 47.3059C27.6175 47.2861 26.6491 47.2405 25.723 47.1712C24.7101 47.0959 23.7477 46.9949 22.8337 46.8681C21.8269 46.7295 20.8807 46.5611 19.9868 46.367C18.9962 46.1531 18.0741 45.9075 17.2126 45.6362C16.2522 45.3351 15.3685 45.0024 14.5533 44.6459C13.6414 44.2477 12.8162 43.8199 12.0656 43.3743C11.2222 42.8752 10.4757 42.3523 9.80786 41.8234C9.23686 41.3718 8.72237 40.9143 8.25831 40.4627C8.10497 40.3122 7.95768 40.1676 7.81846 40.027C7.05983 39.2565 6.51911 38.6088 6.09944 38.0741C5.69994 37.565 5.41142 37.157 5.15518 36.8421C4.91105 36.541 4.69516 36.3251 4.4369 36.1865C4.34006 36.135 4.21295 36.0914 4.06162 36.0578C3.9103 36.0241 3.7388 36.0023 3.55116 35.9884C3.36554 35.9765 3.16579 35.9746 2.96201 35.9825C2.75823 35.9924 2.55041 36.0122 2.34865 36.0459C2.19732 36.0716 2.04802 36.1033 1.90477 36.1409C1.76353 36.1806 1.62835 36.2261 1.50326 36.2796C1.38018 36.3331 1.26719 36.3945 1.16833 36.4658C1.07148 36.5351 0.98876 36.6123 0.924195 36.6995C0.799102 36.8678 0.772873 37.1887 0.859631 37.6225C1.00692 38.3692 1.48106 39.4546 2.33452 40.6984C2.88937 41.5085 3.60564 42.3879 4.49743 43.2832C5.21975 44.0101 6.05707 44.7469 7.01746 45.4718C7.84671 46.0977 8.76877 46.7117 9.78566 47.2979C10.6896 47.8189 11.6661 48.316 12.7254 48.7795C13.6777 49.1974 14.6966 49.5856 15.7821 49.9401C16.2623 50.0966 16.7546 50.2471 17.261 50.3878C17.7856 50.5343 18.3384 50.673 18.9135 50.8017C19.9082 51.0255 20.9735 51.2236 22.0872 51.39C23.1122 51.5425 24.1815 51.6692 25.2771 51.7683C26.3202 51.8614 27.3896 51.9267 28.473 51.9644C29.5303 52 30.5996 52.0079 31.673 51.9861C32.7403 51.9644 33.8097 51.9109 34.871 51.8257C35.9484 51.7386 37.0177 51.6197 38.0649 51.4632C39.1544 51.3008 40.2197 51.0988 41.2507 50.8572C42.316 50.6056 43.345 50.3105 44.3196 49.9659C44.3559 49.952 44.3922 49.9401 44.4305 49.9263C45.4958 49.548 46.5026 49.1399 47.4509 48.7042C48.488 48.2269 49.4605 47.7178 50.3684 47.1712C51.351 46.5829 52.261 45.9531 53.1104 45.2856C54.0002 44.5825 54.8214 43.8358 55.584 43.0435C56.3527 42.2433 57.0609 41.3976 57.7187 40.5043C58.3583 39.6348 58.9495 38.7217 59.5003 37.7651C59.7363 37.3571 59.9643 36.9391 60.1863 36.5153C60.4929 35.929 60.7552 35.3507 60.9812 34.7802C61.4453 33.6057 61.7419 32.4708 61.8912 31.3854C62.0687 30.092 62.0364 28.868 61.8286 27.7291L61.8226 27.7311ZM57.1679 30.7734C57.1558 30.8585 57.1416 30.9417 57.1215 31.0249C56.952 31.7221 56.7381 32.4074 56.4859 33.0769C56.2821 33.6196 56.0501 34.1543 55.7939 34.6772C55.0776 35.3526 54.1838 35.9171 53.1972 36.3073C51.8211 36.852 50.2655 37.06 48.7604 36.7708C47.7738 36.5806 46.8073 36.1766 45.9296 35.5111C45.6774 35.3209 45.4313 35.109 45.1952 34.8733C44.9027 34.5822 44.6363 34.2653 44.3982 33.9266C43.9826 33.3363 43.6578 32.6788 43.4399 31.9776C43.228 31.2943 43.117 30.5694 43.1251 29.8187C43.1251 29.7969 43.1271 29.7731 43.1291 29.7514C43.1715 28.9888 43.3471 28.25 43.6376 27.5627C43.9342 26.8656 44.3498 26.2238 44.8724 25.6653C45.3748 25.1265 45.972 24.667 46.6519 24.3105C47.2693 23.9877 47.9533 23.748 48.6938 23.6153C49.3616 23.4945 50.0779 23.4588 50.8305 23.5242C51.0423 23.542 51.2582 23.5678 51.4781 23.6034C51.9866 23.6846 52.4849 23.8312 52.9631 24.0352C53.6229 24.3165 54.2403 24.7066 54.785 25.178C55.3056 25.6276 55.7616 26.1525 56.1248 26.7289C56.49 27.3072 56.7623 27.9371 56.9116 28.5947C57.065 29.2681 57.2667 30.0524 57.1699 30.7754L57.1679 30.7734Z" fill="white"/>
</g>
<defs>
<clipPath id="clip0_6076_42">
<rect width="62" height="52" fill="white"/>
</clipPath>
</defs>
</svg>
