<svg width="56" height="58" viewBox="0 0 56 58" fill="none" xmlns="http://www.w3.org/2000/svg">
<g clip-path="url(#clip0_6076_63)">
<path d="M55.6664 7.65597C55.6507 6.71358 55.6195 5.94447 55.5688 5.30388C55.4947 4.39459 55.3776 3.74426 55.1961 3.22633C55.1727 3.16013 55.1493 3.09588 55.122 3.03357C54.8215 2.30146 54.2421 1.57714 53.4363 1.02028C52.8139 0.591916 52.0569 0.26091 51.1847 0.103196C50.8335 0.0389418 50.4628 0.00194709 50.0746 0C50.0628 0 49.7292 0 49.1517 0.00194709C48.6405 0.00194709 47.9362 0.00584128 47.0972 0.00778837C46.3285 0.00973546 45.4485 0.0136296 44.4945 0.0194709C43.6711 0.0233651 42.7951 0.0272593 41.8917 0.0331006C41.0391 0.0389419 40.163 0.0447831 39.289 0.0506244C38.4129 0.0584128 37.5369 0.0662012 36.6862 0.0739895C35.7829 0.083725 34.9049 0.0934605 34.0815 0.105143C33.1235 0.118773 32.2397 0.132402 31.4749 0.149926C30.5579 0.169397 29.8106 0.192762 29.3111 0.218074C28.9229 0.237545 28.6809 0.258963 28.6243 0.282328C28.4956 0.3349 28.3863 0.434202 28.2907 0.568551C28.1971 0.7029 28.119 0.87035 28.0585 1.06311C27.998 1.25393 27.9532 1.46811 27.9239 1.69202C27.8946 1.91594 27.881 2.15154 27.881 2.38519C27.881 2.57795 27.8907 2.76877 27.9122 2.95179C27.9317 3.13482 27.961 3.31006 28 3.47167C28.039 3.63328 28.0858 3.78125 28.1424 3.90781C28.199 4.03438 28.2634 4.13952 28.3375 4.2174C28.56 4.453 28.7804 4.59903 29.3521 4.68665C29.8028 4.7548 30.4701 4.7879 31.5276 4.80153C32.2124 4.80932 33.0631 4.80932 34.1225 4.80542C34.8756 4.80153 35.736 4.79764 36.7194 4.7918C37.5037 4.7879 38.3681 4.78206 39.3182 4.77817C40.1201 4.77427 40.9845 4.77038 41.9171 4.76648C42.598 4.76454 43.316 4.76259 44.0711 4.76064C44.2233 4.76064 44.3715 4.76064 44.5159 4.76064C45.5519 4.76064 46.4065 4.75675 47.1148 4.75675C47.2826 4.75675 47.4406 4.75675 47.5928 4.75675C47.1811 5.189 46.7733 5.61736 46.3675 6.04183C45.4837 6.97059 44.6135 7.88183 43.7628 8.7736C42.877 9.70236 42.0088 10.6136 41.1562 11.5054C40.2684 12.4361 39.4002 13.3454 38.5495 14.2371C37.6598 15.1679 36.7916 16.0791 35.9409 16.967C35.0493 17.8996 34.1791 18.8089 33.3323 19.6968C32.4387 20.6314 31.5705 21.5407 30.7218 22.4247C29.8262 23.3612 28.956 24.2705 28.1112 25.1525C27.2118 26.091 26.3435 27.0003 25.5007 27.8804C24.7456 28.669 24.012 29.4342 23.2998 30.178C22.9155 29.81 22.6209 29.5316 22.3536 29.2765C21.9946 28.9357 21.6804 28.6359 21.2649 28.2251C20.9761 27.9388 20.6386 27.5981 20.1996 27.1503C19.9518 26.8971 19.6747 26.6109 19.3547 26.2799C19.2845 26.2059 19.2162 26.1339 19.1479 26.0618C18.7675 25.6627 18.4221 25.2986 18.108 24.9637C17.7197 24.5509 17.3764 24.1848 17.072 23.8597C16.6623 23.4216 16.3228 23.0594 16.034 22.7576C15.5501 22.2533 15.2146 21.9243 14.9395 21.712C14.5278 21.3947 14.2527 21.3382 13.8234 21.3382C13.642 21.3382 13.4605 21.3596 13.283 21.4005C13.1054 21.4414 12.9337 21.4998 12.7679 21.5757C12.6021 21.6517 12.444 21.7432 12.2977 21.8503C12.1514 21.9574 12.0148 22.0781 11.8919 22.2105C11.808 22.302 11.7319 22.3994 11.6616 22.5006C11.5914 22.6019 11.5309 22.7089 11.4782 22.8199C11.4256 22.9309 11.3807 23.0458 11.3475 23.1646C11.3124 23.2833 11.289 23.4041 11.2753 23.5287C11.2226 24.0077 11.2636 24.3776 11.6363 24.9539C11.8411 25.2694 12.1455 25.6491 12.5884 26.1397C12.8733 26.4551 13.2147 26.8193 13.6244 27.2418C13.9366 27.565 14.2878 27.9233 14.6839 28.3224C15.0097 28.6515 15.3648 29.0078 15.7511 29.3953C16.0204 29.6659 16.3072 29.9502 16.6096 30.252C16.6798 30.3221 16.752 30.3922 16.8222 30.4642C17.1637 30.805 17.5207 31.1593 17.8953 31.5312C18.2387 31.872 18.5977 32.2283 18.9704 32.5963C19.3021 32.9253 19.6474 33.2661 20.0025 33.6185C19.1928 34.4635 18.4143 35.2755 17.6671 36.0543C16.7501 37.0103 15.8818 37.9177 15.0546 38.7802C14.1298 39.746 13.2615 40.6533 12.444 41.5081C11.5075 42.4875 10.6393 43.3949 9.83542 44.2379C8.88134 45.2388 8.01701 46.148 7.23463 46.9756C6.24738 48.0173 5.39085 48.9285 4.64944 49.7268C3.58415 50.8717 2.75299 51.7849 2.10718 52.5209C1.46137 53.2569 1.00092 53.8157 0.680938 54.2518C0.169754 54.947 0.00976562 55.3286 0.00976562 55.6168C0.00976562 55.6771 0.0234232 55.755 0.0507384 55.8446C0.0780535 55.9341 0.119026 56.0354 0.171705 56.1444C0.224385 56.2535 0.290722 56.3703 0.366814 56.4891C0.444857 56.6078 0.532656 56.7305 0.632161 56.8512C0.753128 56.9992 0.889704 57.1433 1.03994 57.2796C1.19017 57.4139 1.35601 57.5385 1.53356 57.6456C1.71111 57.7527 1.90036 57.8403 2.10133 57.9007C2.30229 57.9611 2.513 57.9961 2.73348 57.9961C2.96761 57.9961 3.20564 57.9143 3.85145 57.3536C4.22996 57.0245 4.74699 56.5319 5.4845 55.7939C6.15958 55.1183 7.01806 54.2382 8.12237 53.0933C8.87354 52.3145 9.73786 51.413 10.7349 50.3674C11.5192 49.5477 12.3835 48.6403 13.3396 47.6356C14.1415 46.7945 15.0077 45.8832 15.9423 44.9C16.7559 44.0452 17.6222 43.1339 18.5451 42.1643C19.3665 41.2998 20.2327 40.3885 21.1458 39.4286C21.8775 38.6595 22.6384 37.8573 23.4325 37.024C23.7291 37.318 24.0315 37.6198 24.3417 37.9274C24.691 38.2759 25.048 38.6303 25.4148 38.9944C25.7641 39.343 26.1211 39.6993 26.486 40.0634C26.8352 40.4119 27.1923 40.7702 27.5571 41.1323C27.9063 41.4828 28.2634 41.8391 28.6263 42.2032C28.9755 42.5537 29.3326 42.912 29.6935 43.2741C30.0428 43.6266 30.3998 43.9829 30.7608 44.347C31.11 44.6994 31.4651 45.0577 31.8261 45.4198C31.8631 45.4568 31.8983 45.4938 31.9353 45.5308C32.3373 45.9358 32.6202 46.2435 32.9187 46.4654C33.2172 46.6893 33.5313 46.8295 33.9937 46.9016C34.1713 46.9016 34.3391 46.8879 34.4991 46.8607C34.659 46.8334 34.8112 46.7906 34.9615 46.7302C35.1117 46.6699 35.2561 46.5881 35.4024 46.4868C35.5351 46.3934 35.6658 46.2824 35.8004 46.148C35.8121 46.1364 35.8238 46.1227 35.8375 46.111C35.9936 45.9533 36.1282 45.7995 36.2394 45.6515C36.3526 45.5016 36.4423 45.3575 36.5126 45.2154C36.5828 45.0732 36.6335 44.9331 36.6648 44.7968C36.696 44.6585 36.7096 44.5242 36.7038 44.3879C36.6901 43.9926 36.5262 43.6051 36.2492 43.1982C36.0033 42.836 35.6658 42.4583 35.2619 42.0475C34.94 41.7184 34.5751 41.3679 34.183 40.9882C33.865 40.6806 33.5274 40.3515 33.1762 39.9991C33.1528 39.9738 33.1294 39.9504 33.104 39.9271C32.7353 39.5552 32.3802 39.1969 32.0387 38.8542C31.668 38.4804 31.3129 38.1241 30.9715 37.7814C30.5988 37.4056 30.2437 37.0493 29.9043 36.7105C29.5277 36.3327 29.1726 35.9764 28.8351 35.6396C28.4546 35.2599 28.0995 34.9036 27.7639 34.5706C27.3971 34.2046 27.0557 33.8658 26.7376 33.5504C27.4517 32.8007 28.1893 32.0258 28.9482 31.2275C29.7891 30.3454 30.6554 29.4342 31.5529 28.4938C32.3958 27.6098 33.264 26.6985 34.1576 25.76C35.0024 24.8741 35.8707 23.9629 36.7623 23.0263C37.6091 22.1384 38.4773 21.2272 39.369 20.2945C40.2177 19.4047 41.0859 18.4954 41.9756 17.5628C42.8263 16.671 43.6945 15.7617 44.5823 14.833C45.4329 13.9412 46.3031 13.0319 47.1908 12.1031C48.0435 11.2114 48.9137 10.3021 49.7994 9.3733C50.0824 9.07735 50.3633 8.78333 50.6501 8.48348C50.7262 8.40365 50.7945 8.31993 50.8589 8.23231C50.8628 8.85732 50.8628 9.54854 50.8589 10.2865C50.8569 11.1004 50.8511 11.9707 50.8433 12.8683C50.8374 13.7153 50.8296 14.5876 50.8218 15.4619C50.816 16.3322 50.8101 17.2065 50.8062 18.0612C50.8023 18.9588 50.8023 19.835 50.8062 20.6625C50.8062 21.0598 50.8101 21.4453 50.814 21.8172C50.8199 22.3604 50.8277 22.8433 50.8374 23.2736C50.8647 24.5256 50.9096 25.3258 50.9799 25.8613C51.0911 26.7083 51.2667 26.8894 51.5437 27.1347C51.6608 27.2379 51.7896 27.3236 51.93 27.3917C52.0686 27.4598 52.2188 27.5124 52.3749 27.5494C52.5329 27.5864 52.6968 27.6098 52.8685 27.6234C53.0382 27.6351 53.2158 27.637 53.3953 27.6292C53.4402 27.6273 53.4831 27.6254 53.528 27.6215C53.6684 27.6117 53.8011 27.5961 53.924 27.5747C54.0918 27.5455 54.2421 27.5046 54.3786 27.4521C54.5172 27.3995 54.6401 27.3372 54.7493 27.2632C54.8586 27.1892 54.9562 27.1074 55.0401 27.014C55.3113 26.7161 55.4615 26.3227 55.5434 25.8593C55.6722 25.1311 55.6312 24.2316 55.6273 23.258C55.6273 23.2132 55.6273 23.1685 55.6273 23.1237C55.6273 22.2708 55.6273 21.457 55.6312 20.6762C55.6332 19.7649 55.6371 18.9024 55.641 18.0865C55.6449 17.1675 55.6507 16.305 55.6566 15.495C55.6625 14.5604 55.6683 13.6958 55.6742 12.8975C55.68 11.9396 55.6859 11.0751 55.6859 10.2904C55.6859 9.28568 55.6859 8.41728 55.6722 7.65986L55.6664 7.65597Z" fill="white"/>
</g>
<defs>
<clipPath id="clip0_6076_63">
<rect width="55.68" height="58" fill="white"/>
</clipPath>
</defs>
</svg>
