<svg width="62" height="51" viewBox="0 0 62 51" fill="none" xmlns="http://www.w3.org/2000/svg">
<g clip-path="url(#clip0_6076_49)">
<path d="M61.9193 11.2464C61.7676 9.97539 61.4049 8.75711 60.8708 7.61962C60.3416 6.49202 59.6426 5.44519 58.8134 4.51212C57.9908 3.58564 57.0412 2.77126 55.9994 2.09701C54.9509 1.41945 53.8101 0.883679 52.6166 0.524296C51.4098 0.161617 50.147 -0.0230194 48.8711 0.0017087C47.6264 0.0280854 46.3669 0.253936 45.1305 0.710582C44.0046 1.12601 42.8968 1.73268 41.8351 2.552C40.9268 3.25263 40.053 4.10823 39.2288 5.13527C38.876 5.57543 38.5314 6.04691 38.1984 6.55136C38.0484 6.77886 37.9 7.01296 37.755 7.252C37.6 7.50917 37.445 7.77293 37.2934 8.04329C36.7642 8.98296 36.2548 10.0018 35.7635 11.0849C35.3168 12.069 34.8881 13.106 34.4744 14.1825C34.0853 15.1947 33.7127 16.2415 33.3534 17.3147C33.0072 18.3467 32.6775 19.4017 32.3593 20.47C32.0477 21.5185 31.751 22.5785 31.4674 23.6451C31.1921 24.6771 30.9316 25.714 30.6827 26.746C30.5986 26.1657 30.4882 25.5343 30.3563 24.8617C30.2442 24.293 30.114 23.6962 29.9705 23.0763C29.8222 22.4417 29.6573 21.7822 29.4776 21.108C29.3194 20.5162 29.1512 19.9111 28.9699 19.2979C28.7242 18.4637 28.4588 17.6147 28.1736 16.7641C27.8983 15.9382 27.6049 15.1106 27.295 14.2929C26.9834 13.4653 26.6553 12.646 26.3124 11.8481C25.9563 11.0173 25.5838 10.2095 25.1997 9.43631C24.7826 8.59885 24.349 7.80426 23.9039 7.06736C23.3863 6.21176 22.8521 5.4353 22.3032 4.7627C21.9009 4.26978 21.4921 3.83292 21.0767 3.46365C20.775 3.19493 20.47 2.94436 20.1601 2.71026C19.3424 2.09206 18.5 1.5909 17.6444 1.19855C16.7097 0.769929 15.7601 0.473192 14.8106 0.293501C13.8099 0.105567 12.8076 0.0478679 11.825 0.110512C10.8244 0.174806 9.84185 0.362739 8.89724 0.661125C7.95592 0.959511 7.05417 1.3667 6.20847 1.87116C5.36112 2.37726 4.57147 2.97897 3.8593 3.66642C3.14877 4.35221 2.51409 5.12043 1.97501 5.96119C1.44583 6.78711 1.00732 7.68062 0.680908 8.63018C0.366037 9.54676 0.151726 10.5145 0.0577594 11.5234C0.0214915 11.9141 0.00170898 12.3097 0.00170898 12.712C0.00170898 13.3071 0.0511652 13.8989 0.140186 14.4808C0.293501 15.4749 0.563862 16.441 0.924892 17.3411C1.31065 18.3071 1.79532 19.1973 2.33769 19.9721C2.70697 20.4997 3.10426 20.9745 3.5131 21.38C3.80984 21.6734 4.18406 21.8647 4.57971 21.9356C4.90117 21.9933 5.23748 21.9718 5.55565 21.8597C5.63148 21.8333 5.70237 21.802 5.76996 21.7658C5.83755 21.7311 5.90019 21.6916 5.95954 21.6471C6.01889 21.6042 6.07494 21.558 6.12604 21.5086C6.17715 21.4591 6.2266 21.4064 6.27111 21.352C6.35024 21.2547 6.41948 21.1492 6.47718 21.0387C6.53488 20.9283 6.58434 20.8145 6.6239 20.6975C6.66347 20.5805 6.69314 20.4618 6.71622 20.3447C6.73765 20.2277 6.75249 20.1106 6.75908 19.9985C6.77722 19.7084 6.75578 19.4842 6.70138 19.2929C6.54807 18.7539 6.12769 18.4588 5.5507 17.6213C5.50124 17.5488 5.45014 17.473 5.39739 17.3922C5.07592 16.891 4.8138 16.3882 4.60444 15.8854C4.33572 15.2359 4.15603 14.588 4.05712 13.95C3.94997 13.2576 3.93843 12.5751 4.00931 11.9124C4.08185 11.2266 4.24176 10.5623 4.47585 9.92923C4.70994 9.29289 5.01987 8.68952 5.38749 8.12902C5.75677 7.56687 6.18704 7.04758 6.66182 6.58269C7.14979 6.10461 7.68556 5.68423 8.25266 5.33144C8.74722 5.02482 9.26651 4.76764 9.79899 4.57311C9.9012 4.5352 10.0034 4.50058 10.1056 4.46761C10.7634 4.25659 11.4228 4.13625 12.0773 4.09833C12.7499 4.05877 13.4142 4.10658 14.0621 4.23187C14.7215 4.3588 15.3628 4.56652 15.9777 4.84348C16.6025 5.12538 17.2009 5.47816 17.7565 5.8936C18.1522 6.18869 18.528 6.51345 18.8792 6.86624C19.0044 6.99317 19.1297 7.12506 19.255 7.26354C19.7067 7.76469 20.1535 8.34828 20.6035 9.06374C20.9794 9.66051 21.3602 10.348 21.7509 11.1541C22.0707 11.8135 22.3955 12.5521 22.7318 13.3846C23.0137 14.0836 23.3022 14.8485 23.6006 15.6892C23.8198 16.3074 24.0424 16.9652 24.2732 17.6675C24.3128 17.7878 24.3523 17.9098 24.3919 18.0335C24.6243 18.7605 24.8617 19.5336 25.1057 20.3563C25.3101 21.047 25.5195 21.7724 25.7338 22.5356C26.0124 23.5231 26.3009 24.5732 26.6026 25.6909C26.8878 26.7427 27.1845 27.8538 27.4961 29.0276C27.961 30.7767 28.4588 32.6659 28.9996 34.7085C28.8891 35.3118 28.7836 35.9053 28.683 36.4856C28.5033 37.5275 28.3434 38.5298 28.2017 39.481C28.1885 39.575 28.1769 39.6673 28.1654 39.7596C27.9972 41.0504 27.9198 42.1978 27.9181 43.2166C27.9181 43.6815 27.9313 44.12 27.9593 44.5321C28.0055 45.2064 28.0896 45.8097 28.205 46.3488C28.7061 48.7013 29.7925 49.8289 30.9185 50.1635C31.7806 50.4191 32.6643 50.2113 33.3253 49.73C34.2386 49.0673 34.6606 47.8951 34.8552 46.784C34.9821 46.0603 35.0299 45.2591 35.0151 44.4167C35.0052 43.8875 34.9722 43.3419 34.9178 42.7896C34.87 42.2967 34.8041 41.7988 34.7266 41.301C34.6623 40.8905 34.5881 40.48 34.5073 40.0728C34.3095 39.0804 34.0655 38.111 33.7985 37.2126C33.5495 36.3718 33.2808 35.5937 33.0105 34.9211C33.0682 34.6244 33.1292 34.321 33.1918 34.0111C33.3896 33.0319 33.6122 31.9818 33.8562 30.8838C34.0787 29.8815 34.321 28.8396 34.5799 27.7747C34.8271 26.7608 35.0893 25.7272 35.3662 24.6886C35.6382 23.6698 35.9234 22.6477 36.2235 21.6322C36.5235 20.6134 36.8384 19.6029 37.1648 18.6154C37.5011 17.5999 37.8506 16.6091 38.2116 15.6563C38.5941 14.6507 38.9897 13.6879 39.3986 12.7861C39.847 11.8003 40.3086 10.887 40.7866 10.0726C41.0207 9.6737 41.2565 9.29784 41.4972 8.9467C41.8071 8.49335 42.1302 8.06637 42.4632 7.66578C43.0633 6.94537 43.7012 6.31562 44.3821 5.79468C45.0679 5.27045 45.7965 4.85666 46.5714 4.57311C47.3264 4.29781 48.1276 4.14779 48.9749 4.1412C48.9947 4.1412 49.0145 4.1412 49.0343 4.1412C49.8701 4.1412 50.6713 4.25659 51.4247 4.46761C52.2687 4.70335 53.0534 5.05943 53.7639 5.51114C54.5091 5.98592 55.1734 6.56455 55.7389 7.22232C56.306 7.88174 56.7742 8.62029 57.1237 9.40664C57.4633 10.1716 57.6908 10.981 57.7913 11.8119C57.8869 12.6081 57.8672 13.4225 57.7138 14.2319C57.5655 15.0199 57.2918 15.803 56.8797 16.5597C56.5467 17.1729 56.1247 17.7713 55.6021 18.3401C55.4966 18.4555 55.4009 18.5676 55.3152 18.6797C55.0894 18.9715 54.9361 19.2484 54.8685 19.5287C54.8322 19.6754 54.819 19.8221 54.8306 19.9721C54.8421 20.1222 54.8784 20.2755 54.941 20.4354C55.0036 20.5936 55.091 20.7585 55.2081 20.9316C55.3235 21.1047 55.4685 21.2844 55.6416 21.474C55.6647 21.4987 55.6861 21.5234 55.7109 21.5498C55.8197 21.6652 55.9219 21.7691 56.0208 21.8597C56.1461 21.9735 56.2664 22.0674 56.3835 22.14C56.5022 22.2125 56.6209 22.262 56.7396 22.2883C56.8583 22.3131 56.9786 22.3131 57.1055 22.2883C57.4221 22.2208 57.7715 21.9834 58.2101 21.5416C58.4425 21.3075 58.6997 21.0157 58.9915 20.6596C59.5371 19.9705 60.0004 19.2748 60.3894 18.5775C61.0439 17.4037 61.4857 16.225 61.7379 15.0611C62.0198 13.7654 62.0693 12.4894 61.9209 11.2612L61.9193 11.2464Z" fill="white"/>
</g>
<defs>
<clipPath id="clip0_6076_49">
<rect width="62" height="50.2657" fill="white"/>
</clipPath>
</defs>
</svg>
