<svg width="62" height="31" viewBox="0 0 62 31" fill="none" xmlns="http://www.w3.org/2000/svg">
<g clip-path="url(#clip0_6076_56)">
<path d="M0.221239 14.1617C0.277831 14.2989 0.349859 14.4361 0.44075 14.5767C0.531642 14.7156 0.641397 14.858 0.771732 15.0003C0.812891 15.0466 0.857479 15.0912 0.902067 15.1375C1.00496 15.2387 1.10443 15.3278 1.20218 15.405C1.35138 15.5216 1.49543 15.6091 1.6412 15.6657C1.78697 15.724 1.93274 15.7514 2.08194 15.7497C2.23114 15.7463 2.38377 15.7137 2.54326 15.6485C2.68388 15.5919 2.82965 15.5096 2.98228 15.405C3.13663 15.2987 3.29783 15.1684 3.46932 15.0123C3.71113 14.7945 3.97351 14.5253 4.26334 14.2063C4.55316 13.8873 4.87042 13.5169 5.22199 13.095C5.48952 12.7726 5.77934 12.421 6.08974 12.0369C6.40186 11.6527 6.73627 11.2394 7.09641 10.7936C7.50799 10.2842 7.95388 9.73201 8.4392 9.13865C8.82335 8.66876 9.22979 8.17314 9.66366 7.6518C9.76828 7.52661 9.86774 7.40485 9.96549 7.28652C10.4079 6.74803 10.7749 6.28671 11.0871 5.90085C11.3975 5.51499 11.653 5.20116 11.8691 4.95764C12.0972 4.7004 12.2824 4.52033 12.447 4.41229C12.6099 4.30425 12.7523 4.26824 12.8929 4.30082C13.0541 4.33683 13.2136 4.45859 13.4039 4.65924C13.5943 4.85989 13.8155 5.14114 14.1002 5.49098C14.1997 5.61446 14.3077 5.74822 14.426 5.88885C14.7519 6.28157 15.0606 6.65714 15.3572 7.01727C15.7637 7.51118 16.1444 7.97421 16.5028 8.4098C17.1013 9.13865 17.6312 9.78861 18.1063 10.3665C18.5813 10.9462 18.9998 11.4538 19.3702 11.9014C20.1591 12.8498 20.7421 13.5254 21.2189 14.0193C21.6974 14.5133 22.0695 14.8237 22.4399 15.0432C22.7812 15.2455 23.1208 15.3707 23.5375 15.4873C23.5478 15.4908 23.5598 15.4942 23.5701 15.4959C23.9611 15.6022 24.3658 15.6571 24.7757 15.6623C25.2061 15.6674 25.6434 15.616 26.0842 15.5113C26.2316 15.4753 26.3808 15.4342 26.5283 15.3879C26.8439 15.2678 27.1011 15.1598 27.3429 15.0277C27.6636 14.8511 27.9569 14.6282 28.3239 14.2663C28.6891 13.9044 29.1282 13.4054 29.7404 12.6731C30.128 12.2101 30.5859 11.6545 31.1381 10.9822C31.1518 10.9651 31.1655 10.9479 31.1809 10.9308C31.6766 10.3288 32.1276 9.77489 32.5426 9.26898C33.0554 8.6396 33.5098 8.08396 33.9111 7.59178C34.3124 7.09959 34.6623 6.67257 34.9692 6.30386C35.2968 5.90943 35.5746 5.58359 35.813 5.31435C36.0513 5.04682 36.2503 4.83759 36.4183 4.67982C36.5778 4.53062 36.7116 4.42772 36.8265 4.36256C36.9414 4.29739 37.0374 4.27167 37.1249 4.27853C37.2484 4.2871 37.353 4.36084 37.4627 4.48089C37.4833 4.50318 37.5022 4.52548 37.5228 4.54949C37.5999 4.64209 37.6737 4.73127 37.7491 4.82216C38.0287 5.16 38.2996 5.48584 38.5603 5.80139C38.821 6.11693 39.0731 6.42048 39.3132 6.71202C39.8345 7.34311 40.313 7.92104 40.7537 8.45267C41.1927 8.9843 41.594 9.46963 41.9593 9.91208C42.6195 10.7112 43.1683 11.3732 43.6245 11.922C44.0807 12.4708 44.4459 12.9064 44.7426 13.2562C45.4046 14.0331 45.7304 14.3829 45.9774 14.5939C46.1489 14.7396 46.2809 14.8168 46.461 14.9248C46.5896 15.002 46.72 15.0706 46.8503 15.1358C47.2224 15.3193 47.5997 15.4513 47.977 15.5405C48.3543 15.6297 48.7281 15.6725 49.0951 15.6777C49.6233 15.6845 50.1327 15.6091 50.6026 15.4668C51.0725 15.3244 51.5029 15.1152 51.8733 14.8528C51.8819 14.8477 51.8905 14.8408 51.8991 14.8357C52.1391 14.6624 52.3964 14.4326 52.7205 14.0914C53.0515 13.745 53.4528 13.2836 53.981 12.656C54.1439 12.4622 54.3188 12.2547 54.5057 12.0266C54.6944 11.8002 54.895 11.5567 55.1128 11.2926C55.4884 10.8381 55.9103 10.3254 56.3853 9.74745C56.8604 9.16952 57.392 8.52813 57.9836 7.81129C58.2855 7.44601 58.6044 7.06358 58.9406 6.65885C58.9663 6.62799 58.992 6.59712 59.0177 6.56625C59.3779 6.13751 59.7363 5.7345 60.0724 5.35379C60.4549 4.92163 60.8098 4.5169 61.1065 4.13104C61.4032 3.7469 61.645 3.3799 61.7976 3.02662C61.8748 2.84827 61.9297 2.67335 61.9589 2.50014C61.988 2.32693 61.9914 2.15544 61.9657 1.98566C61.9486 1.87933 61.9177 1.77129 61.8748 1.66325C61.8319 1.55521 61.7771 1.44717 61.7102 1.34256C61.645 1.23795 61.5678 1.13334 61.4838 1.03559C61.3998 0.93612 61.3072 0.841799 61.2094 0.752622C61.0894 0.644581 60.9608 0.545115 60.827 0.457653C60.6932 0.370192 60.5526 0.294735 60.412 0.234712C60.2696 0.174689 60.1273 0.128386 59.985 0.102662C59.8426 0.0769382 59.7037 0.0683635 59.5682 0.082083C59.4225 0.0975174 59.2801 0.135246 59.1378 0.195269C58.9954 0.255291 58.8531 0.337608 58.7073 0.440504C58.4347 0.634292 58.1517 0.903536 57.8413 1.24481C57.5309 1.58437 57.1931 1.99595 56.8089 2.47442C56.6837 2.63047 56.5551 2.79339 56.4196 2.96317C56.1727 3.27357 55.9995 3.49137 55.8245 3.70917C55.5467 4.05387 55.2655 4.39686 54.6875 5.09312C54.4011 5.43782 54.041 5.86998 53.5728 6.4342C53.1047 6.9967 52.5267 7.69124 51.8047 8.56071C51.647 8.75107 51.4823 8.94829 51.3108 9.15408C51.1531 9.34444 50.9884 9.54166 50.8186 9.74745C50.8049 9.7646 50.7912 9.78003 50.7775 9.79718C50.5665 10.0527 50.3882 10.2808 50.2304 10.4797C50.0744 10.6787 49.9389 10.8484 49.8154 10.9873C49.6868 11.1314 49.5719 11.2394 49.4553 11.3115C49.373 11.3629 49.2906 11.3938 49.2032 11.4041C49.1586 11.4092 49.1157 11.4127 49.0728 11.4092C48.9991 11.4058 48.9271 11.3869 48.8465 11.3441C48.7641 11.3012 48.6733 11.236 48.5635 11.1348C48.4503 11.0319 48.3183 10.8947 48.1536 10.7112C47.989 10.5277 47.7935 10.2997 47.5568 10.0133C47.2962 9.70115 46.9858 9.32215 46.6102 8.86254C46.2346 8.40294 45.7956 7.86274 45.276 7.22821C44.8918 6.75661 44.4631 6.23526 43.9846 5.65562C43.6897 5.2972 43.3758 4.91648 43.0414 4.51347C42.8579 4.29224 42.6847 4.07788 42.5167 3.86866C41.9936 3.2187 41.5374 2.6339 41.0915 2.12971C40.6457 1.62552 40.2101 1.20022 39.7265 0.867523C39.3457 0.605138 38.9359 0.401061 38.4677 0.258721C38.2327 0.186694 37.9841 0.131816 37.7183 0.0923726C37.4799 0.0580739 37.2364 0.0409246 36.9911 0.0426395C36.5796 0.0460694 36.1577 0.102662 35.7341 0.214133C35.3825 0.308454 35.0293 0.440504 34.676 0.613712C34.6057 0.653156 34.5405 0.68917 34.4788 0.725183C34.1495 0.913826 33.9214 1.06474 33.5836 1.40258C33.244 1.74042 32.793 2.26519 32.0144 3.20326C31.6817 3.60456 31.289 4.07959 30.8191 4.65067C30.7453 4.73984 30.6733 4.8273 30.6013 4.91477C30.0971 5.52528 29.6426 6.07921 29.2311 6.57997C28.66 7.27623 28.1712 7.87131 27.7528 8.38065C27.3343 8.88998 26.9845 9.31529 26.6912 9.66685C26.3963 10.0218 26.1596 10.3031 25.9641 10.5277C25.7686 10.7524 25.616 10.9187 25.4925 11.0439C25.2867 11.2497 25.1615 11.3355 25.0518 11.3698C24.9489 11.4024 24.8614 11.3869 24.7362 11.3801C24.7259 11.3801 24.7156 11.3784 24.7053 11.3766C24.6402 11.3646 24.5682 11.3252 24.4653 11.2343C24.3624 11.1434 24.2303 11.0028 24.0468 10.7918C23.9028 10.6255 23.7244 10.4146 23.5032 10.1487C23.282 9.88293 23.0179 9.56224 22.7006 9.17466C22.3696 8.77165 21.9786 8.30005 21.5173 7.74269C21.423 7.62951 21.3304 7.51804 21.2395 7.40828C20.7198 6.7789 20.2534 6.21469 19.8332 5.70535C19.1421 4.86675 18.5779 4.17906 18.1097 3.61142C17.6415 3.04377 17.2677 2.59618 16.959 2.23947C16.117 1.26367 15.7517 0.951554 15.2286 0.67202C15.0914 0.598278 14.9457 0.527966 14.7759 0.449079C14.1945 0.214133 13.6543 0.082083 13.1536 0.030635C12.5002 -0.0345325 11.9137 0.0374947 11.382 0.205558C10.8521 0.373622 10.3788 0.636007 9.9552 0.948125C9.22293 1.48661 8.6347 2.17259 8.14938 2.77453C7.95902 3.01119 7.78238 3.23413 7.61946 3.42963C7.28505 3.83264 6.96607 4.21507 6.66082 4.58207C6.08631 5.27147 5.56154 5.90085 5.08308 6.47193C4.60461 7.04471 4.17245 7.56091 3.77973 8.02737C3.36814 8.51784 3.00286 8.95515 2.67702 9.34444C2.35119 9.73373 2.06651 10.0767 1.81784 10.3785C1.37882 10.9119 1.04955 11.3218 0.802601 11.6476C0.555651 11.9734 0.391017 12.2187 0.282976 12.4193C0.18008 12.608 0.126917 12.7589 0.0977633 12.9064C0.0686095 13.0538 0.0668945 13.1962 0.0668945 13.3677C0.0668945 13.498 0.0788991 13.6283 0.104623 13.7621C0.130347 13.8959 0.169791 14.0314 0.226383 14.1668L0.221239 14.1617Z" fill="white"/>
<path d="M61.9828 17.1182C61.9605 16.969 61.9159 16.8164 61.849 16.6621C61.7838 16.5094 61.6981 16.3551 61.5952 16.2093C61.4923 16.0636 61.3722 15.9229 61.2368 15.796C61.1013 15.6691 60.9538 15.5525 60.7943 15.4565C60.6794 15.3862 60.5594 15.3261 60.4359 15.2781C60.3107 15.2301 60.1821 15.1924 60.05 15.1684C59.918 15.1444 59.7808 15.1358 59.6419 15.1426C59.503 15.1495 59.3623 15.1718 59.22 15.2112C59.0759 15.2524 58.9679 15.2764 58.8461 15.3416C58.7244 15.4067 58.5872 15.5131 58.3814 15.7189C58.2322 15.8681 58.0487 16.067 57.8086 16.3414C57.5685 16.6158 57.2735 16.9622 56.9014 17.4046C56.5721 17.7974 56.1811 18.2672 55.7181 18.8263C55.2551 19.3854 54.7166 20.0353 54.0924 20.7916C53.6962 21.2718 53.264 21.7932 52.7924 22.3625C52.3208 22.9319 51.8115 23.5475 51.2593 24.2129C51.026 24.4942 50.7842 24.7857 50.5339 25.0858C50.2852 25.3859 50.0262 25.6963 49.7621 26.0153C49.7193 26.0668 49.6764 26.1182 49.6335 26.1697C49.5924 26.2194 49.5529 26.2623 49.5118 26.3C49.4209 26.384 49.3283 26.4372 49.2254 26.4492C49.1533 26.4578 49.0779 26.4475 48.9921 26.4149C48.9064 26.3823 48.8138 26.3292 48.7075 26.252C48.5548 26.1388 48.3782 25.9759 48.1655 25.7546C47.9529 25.5334 47.7059 25.2539 47.4144 24.9092C47.0868 24.5216 46.701 24.05 46.2448 23.4841C45.7886 22.9182 45.2621 22.2579 44.6499 21.493C44.2589 21.006 43.8353 20.4761 43.3723 19.8999C43.3243 19.8398 43.2745 19.7798 43.2265 19.7198C42.7018 19.0664 42.2404 18.4971 41.822 17.9997C41.2646 17.336 40.781 16.8044 40.3214 16.386C39.8618 15.9675 39.4245 15.6623 38.9598 15.4513C38.6134 15.2953 38.2515 15.1907 37.8519 15.1306C37.5072 15.0792 37.1334 15.0603 36.7184 15.0706C36.6618 15.0758 36.6069 15.0809 36.552 15.086C36.1559 15.1255 35.8026 15.1941 35.4802 15.2918C35.1578 15.3896 34.8645 15.5148 34.5901 15.6708C34.1151 15.9418 33.6932 16.3019 33.2559 16.7581C32.8186 17.2143 32.3693 17.7665 31.8394 18.4199C31.7982 18.4713 31.7553 18.5228 31.7125 18.5759C31.2117 19.1933 30.7487 19.7627 30.3216 20.2874C29.8518 20.8637 29.4247 21.3867 29.0372 21.86C28.25 22.8204 27.6189 23.5801 27.113 24.1786C26.6071 24.7771 26.2247 25.2179 25.9297 25.5386C25.5816 25.9193 25.3569 26.1354 25.1974 26.2571C25.0379 26.3789 24.9436 26.4063 24.8579 26.408C24.8133 26.408 24.7687 26.4029 24.719 26.4012C24.6692 26.3977 24.6178 26.3806 24.5406 26.3223C24.4377 26.2451 24.2902 26.0976 24.0501 25.825C23.8821 25.6346 23.6677 25.3842 23.3916 25.0532C23.1138 24.7223 22.7742 24.3124 22.3541 23.8031C22.0059 23.3812 21.6012 22.8907 21.133 22.3231C20.6631 21.7554 20.1298 21.1089 19.521 20.3732C19.2792 20.0816 19.0254 19.7764 18.7596 19.4557C18.516 19.1624 18.288 18.8761 18.0684 18.5982C17.5917 17.998 17.1595 17.4441 16.7171 16.9605C16.1872 16.3808 15.6418 15.9041 14.9884 15.5714C14.9678 15.5611 14.9456 15.5508 14.925 15.5388C14.287 15.2267 13.5667 15.0689 12.8448 15.0586C12.3457 15.0517 11.8467 15.1152 11.3751 15.2473C11.0887 15.3279 10.8108 15.4342 10.5485 15.5645C10.3701 15.6537 10.2038 15.7549 10.046 15.8612C9.35487 16.3277 8.84382 16.9416 8.32591 17.5761C8.22473 17.6996 8.12183 17.8248 8.01894 17.95C7.57648 18.4833 7.15289 18.9892 6.74989 19.4694C6.19939 20.1228 5.68663 20.7282 5.20987 21.289C4.73312 21.8497 4.29067 22.3659 3.88423 22.8427C3.25485 23.5818 2.70607 24.2249 2.23789 24.7926C1.76972 25.3602 1.37871 25.8507 1.06145 26.2811C0.852228 26.5658 0.67559 26.8265 0.52982 27.0649C0.384051 27.3032 0.26915 27.5227 0.185119 27.7251C0.118236 27.8863 0.0702181 28.0372 0.0393493 28.1813C0.00848048 28.3253 -0.00352405 28.4625 0.00333568 28.5946C0.00676555 28.6958 0.0222 28.7952 0.046209 28.893C0.0702181 28.9907 0.106232 29.0868 0.15082 29.1828C0.195408 29.2788 0.250286 29.3732 0.313739 29.4692C0.377191 29.5652 0.450933 29.663 0.534965 29.7607C0.639576 29.8842 0.757907 30.0111 0.889956 30.1449C0.937975 30.1929 0.989423 30.2426 1.04087 30.2924C1.13519 30.3695 1.22608 30.4364 1.31526 30.4947C1.4696 30.5959 1.6188 30.6679 1.76629 30.7108C1.91377 30.7537 2.06126 30.7657 2.21217 30.7485C2.35794 30.7314 2.50714 30.6834 2.66491 30.6062C2.82269 30.529 2.98732 30.4193 3.16396 30.2804C3.33545 30.1432 3.51895 29.9768 3.71617 29.7796C3.91338 29.5807 4.12775 29.3526 4.35927 29.0902C4.7194 28.6838 5.12584 28.1984 5.59231 27.6291C6.05877 27.0614 6.58525 26.4098 7.18719 25.6706C7.6125 25.1476 8.07724 24.5816 8.58315 23.9694C8.67233 23.8631 8.7615 23.7533 8.85239 23.6436C9.29485 23.1119 9.68071 22.6403 10.022 22.2219C10.4713 21.6714 10.84 21.2169 11.147 20.8414C11.4539 20.4675 11.7009 20.1743 11.9033 19.9479C12.1331 19.6924 12.3097 19.526 12.4572 19.4265C12.6047 19.3288 12.7264 19.2979 12.8465 19.3185C12.9151 19.3305 12.9837 19.3579 13.0574 19.3991C13.0831 19.4145 13.15 19.478 13.2461 19.5809C13.3901 19.7335 13.6028 19.9753 13.8651 20.2789C14.1687 20.6304 14.5391 21.066 14.9438 21.5479C15.3486 22.0298 15.791 22.558 16.2352 23.0931C16.7634 23.7276 17.2967 24.3741 17.7855 24.9641C18.2742 25.5557 18.7167 26.0925 19.0597 26.5127C19.5501 27.1094 19.8434 27.4679 19.7885 27.401C19.984 27.6376 20.159 27.852 20.3202 28.0458C20.8141 28.6426 21.1656 29.049 21.4897 29.3577C21.915 29.7642 22.2923 29.9991 22.884 30.2769C22.9354 30.2975 22.9886 30.3181 23.04 30.337C23.6386 30.5599 24.2388 30.6765 24.827 30.6868C25.1957 30.6937 25.5593 30.6594 25.9143 30.5839C26.2881 30.5033 26.6088 30.4124 26.9158 30.2735C27.4972 30.0111 28.0356 29.579 28.8228 28.7352C29.2258 28.3013 29.6957 27.7594 30.2685 27.0734C30.8413 26.3892 31.5187 25.5626 32.3384 24.5611C32.7363 24.0757 33.1684 23.5492 33.6383 22.9765C34.1082 22.4054 34.6158 21.788 35.1663 21.1226C35.3481 20.9031 35.5333 20.6802 35.7237 20.4504C35.7597 20.4075 35.794 20.3646 35.8283 20.3235C36.0907 20.0028 36.281 19.7558 36.4508 19.5877C36.54 19.4986 36.624 19.4334 36.7098 19.3888C36.7955 19.3459 36.883 19.3254 36.9773 19.3305C37.0339 19.3339 37.0939 19.3442 37.1591 19.3648C37.1865 19.3734 37.2105 19.3802 37.2345 19.3871C37.2997 19.4094 37.358 19.442 37.4781 19.562C37.5621 19.6461 37.6753 19.7712 37.8433 19.9667C38.0097 20.1623 38.2309 20.4264 38.5259 20.7848C38.8157 21.1346 39.1759 21.5754 39.632 22.1327C40.0882 22.6883 40.637 23.3589 41.3041 24.1701C41.4276 24.3193 41.5527 24.4736 41.6831 24.6314C42.1375 25.1853 42.544 25.6775 42.9075 26.1182C43.4015 26.7184 43.8165 27.2192 44.1715 27.6394C45.0564 28.694 45.5588 29.248 45.9533 29.5927C46.3477 29.9374 46.6324 30.0711 47.0851 30.2821C47.0903 30.2838 47.0937 30.2872 47.0989 30.2889C47.6322 30.5033 48.1295 30.6336 48.596 30.6919C49.0659 30.752 49.5049 30.7382 49.9148 30.6662C50.3229 30.5942 50.7019 30.4656 51.0603 30.2924C51.417 30.1192 51.7515 29.9014 52.067 29.6544C52.5472 29.2788 52.9828 28.833 53.3927 28.3648C53.8025 27.8983 54.185 27.4096 54.5571 26.95C54.6669 26.8145 54.7749 26.6807 54.8829 26.5504C55.2997 26.0496 55.6941 25.578 56.0645 25.1338C56.5464 24.5559 56.9923 24.0243 57.4022 23.5355C58.035 22.7792 58.5855 22.1224 59.0605 21.5531C59.5373 20.982 59.9386 20.4967 60.2781 20.0799C60.6091 19.6735 60.8818 19.3322 61.103 19.0407C61.3242 18.7509 61.4957 18.5108 61.6261 18.3067C61.8061 18.0254 61.909 17.8111 61.9605 17.6259C62.0119 17.4407 62.0119 17.2829 61.9879 17.1148L61.9828 17.1182Z" fill="white"/>
</g>
<defs>
<clipPath id="clip0_6076_56">
<rect width="62" height="30.7591" fill="white"/>
</clipPath>
</defs>
</svg>
