<svg width="41" height="52" viewBox="0 0 41 52" fill="none" xmlns="http://www.w3.org/2000/svg">
<path d="M40.9394 2.05549C40.8921 1.86243 40.8179 1.66937 40.7235 1.48648C40.629 1.30189 40.5126 1.12746 40.3828 0.966584C40.2529 0.805704 40.1078 0.661759 39.9526 0.538136C39.8734 0.475477 39.7907 0.417899 39.7081 0.367095C39.6254 0.316291 39.5394 0.273954 39.4534 0.238391C39.3674 0.202828 39.2813 0.175733 39.1936 0.157105C39.1059 0.138477 39.0199 0.128316 38.9339 0.128316C38.524 0.128316 38.0821 0.324758 37.5727 0.705789C37.2253 0.96489 36.8441 1.30866 36.4173 1.73711C36.3566 1.79808 36.2959 1.86074 36.2352 1.9217C35.9349 2.22653 35.6431 2.53304 35.3564 2.84295C34.6463 3.61178 33.9767 4.39586 33.3493 5.19349C32.6999 6.01821 32.0927 6.85817 31.5293 7.71168C30.9491 8.59059 30.4144 9.48305 29.9236 10.3891C29.4209 11.3171 28.9655 12.2586 28.5557 13.2087C28.1374 14.1807 27.768 15.1629 27.4475 16.1519C27.122 17.1595 26.8454 18.1739 26.6194 19.1934C26.39 20.2264 26.2129 21.2645 26.0847 22.3043C25.9986 23.0037 25.9362 23.7031 25.8958 24.4042C25.6596 24.4042 25.4235 24.4042 25.184 24.4042C24.7404 24.4042 24.29 24.4042 23.838 24.4042C23.2763 24.4042 22.7079 24.4042 22.1395 24.4042C21.5745 24.4042 21.0077 24.4042 20.441 24.4042C19.8726 24.4042 19.3059 24.4042 18.7425 24.4059C18.1724 24.4059 17.604 24.4059 17.044 24.4093C16.678 24.4093 16.3154 24.4093 15.9561 24.411C15.6963 24.411 15.4383 24.411 15.1819 24.411C15.1465 23.8928 15.0976 23.3712 15.0352 22.8496C14.912 21.8166 14.7383 20.7802 14.5089 19.7387C14.4094 19.2865 14.2998 18.8327 14.1783 18.3788C14.0484 17.8268 13.9034 17.2832 13.7448 16.7463C13.4446 15.7286 13.0988 14.7379 12.7143 13.7828C12.3179 12.7955 11.881 11.8454 11.4189 10.936C10.9331 9.98093 10.4204 9.07323 9.89244 8.21802C9.32234 7.29508 8.73706 6.43311 8.15178 5.64226C7.49059 4.74472 6.8311 3.93862 6.20365 3.23414C5.40247 2.3366 4.65189 1.60502 4.00589 1.0665C3.60952 0.736272 3.25194 0.477171 2.94834 0.297663C2.68859 0.143557 2.46763 0.0470292 2.2939 0.0131598C2.20956 -0.00377495 2.12354 -0.00377495 2.03415 0.00977281C1.94644 0.0233206 1.85536 0.0504161 1.76597 0.0893659C1.67488 0.128316 1.58549 0.17912 1.49441 0.238391C1.40501 0.297663 1.31562 0.367095 1.22791 0.443301C1.06262 0.587246 0.90238 0.7549 0.755637 0.931021C0.608895 1.10714 0.477333 1.29173 0.364325 1.46785C0.253004 1.64397 0.160236 1.81332 0.0978281 1.95726C0.0337338 2.10121 0 2.22314 0 2.30443C0 2.5449 0.0995148 2.804 0.332278 3.12576C0.509381 3.36962 0.762384 3.64735 1.10647 3.97757C1.22791 4.09442 1.35947 4.21635 1.50284 4.34675C2.05102 4.84124 2.57726 5.35606 3.08158 5.88781C3.71409 6.55504 4.31287 7.25275 4.87622 7.97586C5.44295 8.70236 5.97426 9.45426 6.46846 10.2316C6.96435 11.0106 7.42313 11.8116 7.84311 12.6329C8.26478 13.4559 8.64766 14.2993 8.99175 15.1596C9.33583 16.0198 9.63944 16.8971 9.90088 17.7878C10.1691 18.6955 10.3934 19.6168 10.5756 20.5499C10.7527 21.4559 10.8876 22.372 10.9804 23.2967C11.0175 23.6692 11.0478 24.0435 11.0714 24.4178C10.7914 24.4178 10.5182 24.4178 10.25 24.4195C9.65124 24.4195 9.08283 24.4228 8.55152 24.4245C7.93251 24.4262 7.36241 24.4279 6.85302 24.4296C6.17497 24.4313 5.6015 24.4347 5.15453 24.4364C4.47648 24.4398 4.08854 24.4415 4.07336 24.4415C3.83891 24.455 3.63313 24.5075 3.45434 24.5888C3.19965 24.704 2.99725 24.8801 2.84376 25.0952C2.77798 25.1883 2.72063 25.2882 2.67172 25.3915C2.6228 25.4965 2.58232 25.6066 2.55028 25.72C2.51823 25.8335 2.49293 25.9504 2.47606 26.0672C2.4592 26.1857 2.44907 26.3043 2.44739 26.4228C2.44402 26.5532 2.44907 26.6819 2.46257 26.8089C2.47606 26.936 2.4963 27.0579 2.52329 27.1764C2.55028 27.2933 2.5857 27.4067 2.62786 27.51C2.66834 27.6133 2.71726 27.7099 2.77123 27.7945C2.93484 28.057 3.10688 28.2365 3.45603 28.3585C3.79843 28.477 4.31118 28.5414 5.15453 28.5702C5.61331 28.5871 6.1716 28.5922 6.85302 28.5922C7.3506 28.5922 7.91395 28.5888 8.55152 28.5837C9.06596 28.5786 9.631 28.5735 10.25 28.5668C10.5047 28.5634 10.7695 28.5617 11.0445 28.5583C11.0377 28.6531 11.0293 28.748 11.0225 28.8428C10.9432 29.759 10.8235 30.6768 10.6582 31.5913C10.4963 32.4939 10.2905 33.3949 10.0409 34.2924C9.7963 35.1747 9.50956 36.0519 9.17897 36.9223C8.85513 37.7759 8.4908 38.6226 8.08262 39.4609C7.68456 40.2788 7.24602 41.0883 6.767 41.8876C6.2981 42.6683 5.79041 43.4371 5.24392 44.1958C4.71093 44.9325 4.13914 45.659 3.53024 46.3702C3.22495 46.7275 2.90954 47.0798 2.58401 47.4303C2.2686 47.769 1.94475 48.1043 1.61079 48.4363C1.45899 48.5954 1.34935 48.7445 1.27176 48.8833C1.04406 49.2915 1.08792 49.6047 1.13852 49.7809C1.17225 49.8977 1.22285 50.0332 1.29032 50.1771C1.35779 50.3211 1.44043 50.4752 1.53826 50.631C1.6344 50.7851 1.74573 50.9409 1.86548 51.0899C1.98692 51.2373 2.11848 51.3778 2.26017 51.5031C2.34113 51.5743 2.42377 51.6403 2.5098 51.6996C2.59582 51.7588 2.68353 51.8113 2.77461 51.8537C2.864 51.8977 2.95677 51.9316 3.04954 51.957C3.1423 51.9824 3.23845 51.9959 3.33459 51.9993C3.59096 52.0061 3.78662 51.9654 4.10709 51.7334C4.40732 51.515 4.81719 51.1289 5.49018 50.4532C5.58969 50.3533 5.68921 50.2517 5.78872 50.1484C6.13787 49.7876 6.48195 49.4151 6.8176 49.0307C7.48722 48.2652 8.13154 47.454 8.7438 46.6022C9.34258 45.7707 9.91099 44.8986 10.4457 43.9926C10.9702 43.1035 11.4594 42.1806 11.9131 41.2288C12.3567 40.294 12.7649 39.3288 13.1309 38.3398C13.4918 37.366 13.8123 36.3669 14.0889 35.3474C14.3605 34.3415 14.5899 33.317 14.7704 32.2755C14.9491 31.2475 15.0807 30.2044 15.1634 29.1493C15.1802 28.941 15.1937 28.7344 15.2055 28.5244C15.4484 28.5244 15.698 28.521 15.951 28.5194C16.3069 28.5177 16.6729 28.516 17.0491 28.5143C17.5939 28.5126 18.1589 28.5109 18.7476 28.5092C19.2941 28.5092 19.8608 28.5075 20.4461 28.5075C20.9942 28.5075 21.561 28.5075 22.1446 28.5075C22.6944 28.5075 23.2612 28.5092 23.8431 28.5126C24.2732 28.5126 24.7134 28.516 25.1621 28.5177C25.4117 28.5177 25.663 28.521 25.9177 28.521C25.9194 28.5481 25.9211 28.5752 25.9228 28.604C25.9953 29.6523 26.1184 30.6955 26.2888 31.7352C26.4591 32.7666 26.6784 33.7945 26.9449 34.8123C27.2097 35.8199 27.52 36.819 27.8776 37.808C28.2301 38.7835 28.6282 39.7487 29.0701 40.7022C29.5053 41.6387 29.986 42.5633 30.5072 43.4727C31.0199 44.3652 31.5732 45.2441 32.1686 46.106C32.7522 46.9511 33.3745 47.7792 34.0357 48.5887C34.4001 49.034 34.7762 49.4743 35.1624 49.9079C35.262 50.0196 35.3632 50.1314 35.4644 50.2415C35.8068 50.6157 36.1255 50.9595 36.4342 51.2406C36.8508 51.6217 37.2472 51.8892 37.6469 51.9587C37.7414 51.9756 37.8375 51.9807 37.9337 51.9739C38.0298 51.9671 38.126 51.9485 38.2238 51.9146C38.3216 51.8825 38.4194 51.8367 38.519 51.7758C38.6185 51.7165 38.7197 51.6403 38.8226 51.5505C38.9659 51.4252 39.1144 51.2694 39.2645 51.0798C39.2948 51.0425 39.3235 51.0053 39.3539 50.9646C39.4719 50.8071 39.5748 50.6615 39.6592 50.526C39.7823 50.3296 39.8717 50.1534 39.9307 49.9892C39.9898 49.8249 40.0167 49.6742 40.0134 49.5285C40.0083 49.1797 39.8329 48.863 39.5209 48.4854C39.2982 48.2144 39.0047 47.913 38.6522 47.5438C38.5662 47.454 38.4802 47.3626 38.3958 47.2711C38.0146 46.863 37.6486 46.4549 37.2995 46.0451C36.6838 45.322 36.1205 44.5972 35.6027 43.874C35.0461 43.0967 34.5434 42.3228 34.0897 41.5523C33.6023 40.7242 33.1705 39.9029 32.791 39.0917C32.3794 38.2179 32.0269 37.3559 31.7267 36.5142C31.3994 35.5981 31.1313 34.7056 30.9137 33.8419C30.6725 32.8902 30.492 31.974 30.3587 31.1053C30.2204 30.1993 30.131 29.3458 30.0788 28.5532C30.3267 28.5549 30.578 28.5583 30.831 28.56C31.3252 28.5651 31.8262 28.5702 32.3372 28.5769C32.8247 28.582 33.3189 28.5888 33.8215 28.5956C33.8941 28.5956 33.9649 28.5972 34.0357 28.5989C34.6767 28.6074 35.2417 28.6125 35.7342 28.6023C36.4393 28.5871 36.9992 28.5397 37.4327 28.4211C37.851 28.3077 38.1529 28.1282 38.357 27.8504C38.4161 27.7691 38.4667 27.6794 38.5105 27.5812C38.5527 27.4829 38.5881 27.3746 38.6168 27.256C38.6438 27.1375 38.664 27.0105 38.6775 26.8716C38.6893 26.7412 38.6961 26.6006 38.6961 26.4482C38.6961 26.4398 38.6961 26.433 38.6961 26.4245C38.6961 26.2992 38.6859 26.1756 38.6708 26.057C38.6539 25.9385 38.6303 25.8217 38.5982 25.7116C38.5662 25.6015 38.5257 25.4948 38.4785 25.3949C38.4312 25.295 38.3756 25.2001 38.3115 25.1138C38.104 24.8276 37.8122 24.6176 37.4361 24.5228C37.3636 24.5041 37.2894 24.4906 37.2118 24.4804C37.0768 24.4635 36.5556 24.4499 35.7376 24.4398C35.2653 24.433 34.6935 24.4279 34.0391 24.4245C33.5213 24.4212 32.9529 24.4178 32.3406 24.4161C31.8768 24.4144 31.3876 24.4127 30.8782 24.411C30.6185 24.411 30.352 24.411 30.0821 24.4093C30.1192 23.8555 30.1715 23.3119 30.2356 22.7785C30.3503 21.8352 30.5072 20.9224 30.7011 20.0401C30.9035 19.1138 31.1464 18.2197 31.4214 17.3611C31.7115 16.4585 32.037 15.5931 32.3929 14.765C32.7673 13.8928 33.1738 13.0614 33.6023 12.2722C34.0577 11.4339 34.5367 10.6431 35.0326 9.89964C35.5656 9.09863 36.1137 8.35181 36.6653 7.66087C37.2759 6.89712 37.8881 6.19941 38.4869 5.56774C38.7298 5.31203 38.9693 5.06648 39.2054 4.83278C39.369 4.6702 39.531 4.51271 39.6912 4.3603C39.9257 4.13676 40.1247 3.96233 40.29 3.81161C40.7504 3.39502 40.9613 3.16301 40.9967 2.62618C41.0085 2.43821 40.9883 2.24346 40.941 2.0504L40.9394 2.05549Z" fill="white"/>
</svg>
