<svg width="62" height="55" viewBox="0 0 62 55" fill="none" xmlns="http://www.w3.org/2000/svg">
<g clip-path="url(#clip0_6076_60)">
<path d="M61.9771 32.2388C61.8862 30.7747 61.5379 29.3454 60.9237 28.0675C60.9097 28.0362 60.8939 28.0048 60.8799 27.9752C60.2237 26.6486 59.2752 25.4874 58.0188 24.6221C57.5096 24.2722 56.9496 23.9693 56.3371 23.7238C56.2461 23.689 56.1551 23.6542 56.0641 23.6194C55.3484 23.3582 54.5907 23.1684 53.8067 23.0553C52.4173 22.8551 50.9876 22.8986 49.5841 23.1876C48.2192 23.4696 46.8788 23.9867 45.6311 24.7423C44.9258 25.1688 44.2486 25.6737 43.6116 26.2534C43.5889 25.9783 43.5696 25.7033 43.5486 25.4282C43.5189 24.9964 43.4909 24.5664 43.4664 24.1382C43.4069 23.1249 43.3631 22.1239 43.3246 21.1385C43.2844 20.1026 43.2494 19.0842 43.2127 18.0883C43.1724 17.0298 43.1304 15.9974 43.0709 14.9946C43.0079 13.91 42.9274 12.8585 42.8119 11.8487C42.6859 10.7258 42.5179 9.65339 42.2887 8.64015C42.0244 7.46849 41.6797 6.37517 41.2212 5.37238C40.6927 4.21464 40.0138 3.17877 39.1353 2.28392C39.1178 2.26477 39.0986 2.24736 39.0793 2.22995C38.1186 1.27416 36.8534 0.59519 35.4675 0.252221C34.1935 -0.0628919 32.8198 -0.0924882 31.4899 0.208697C31.1084 0.295745 30.7304 0.407167 30.3612 0.549925C29.4722 0.889412 28.6637 1.37166 27.9235 1.97577C27.0223 2.71045 26.2243 3.62794 25.5121 4.69514C24.9171 5.58477 24.3817 6.57712 23.8952 7.65651C23.4682 8.60185 23.078 9.61335 22.7175 10.6771C22.3885 11.6485 22.0858 12.6635 21.8005 13.7133C21.6833 14.1485 21.5695 14.5907 21.4575 15.0364C21.4348 14.925 21.4138 14.8118 21.391 14.7004C21.3665 14.5786 21.342 14.4567 21.3175 14.3348C21.23 13.91 21.1408 13.4852 21.0463 13.0604C20.9588 12.6635 20.866 12.2666 20.7716 11.8731C20.6193 11.2446 20.4583 10.6248 20.2816 10.0155C20.1066 9.40792 19.9176 8.81077 19.7146 8.23451C19.5011 7.62692 19.2684 7.04021 19.0164 6.48137C18.7609 5.91381 18.4844 5.37412 18.1852 4.86924C17.8422 4.29298 17.4677 3.76025 17.0565 3.28323C16.5752 2.72612 16.045 2.24388 15.457 1.8539C14.8235 1.43259 14.1236 1.11922 13.3449 0.929454C12.6746 0.765804 11.9467 0.696165 11.1557 0.734466C10.9142 0.746653 10.6692 0.765804 10.4155 0.797141C9.95874 0.872002 9.51076 0.981682 9.07152 1.12096C8.45555 1.31595 7.85707 1.57013 7.2761 1.87305C6.73187 2.15683 6.20339 2.48239 5.69241 2.84277C5.20768 3.18399 4.73695 3.55482 4.28372 3.94653C3.84448 4.32606 3.42275 4.72648 3.01502 5.14083C2.61253 5.54995 2.22755 5.96952 1.85831 6.39606C1.56433 6.73555 1.27909 7.07851 1.0061 7.42322C0.916853 7.53813 0.834606 7.64955 0.755859 7.75749C0.339376 8.32504 0.0733866 8.79336 0.0121391 9.22686C-0.0246095 9.49844 0.0173888 9.75611 0.157383 10.0155C0.24313 10.1739 0.372625 10.3341 0.509119 10.4786C0.647363 10.6231 0.792608 10.7502 0.911603 10.8477C1.0516 10.9626 1.15309 11.0322 1.15834 11.0322C1.16884 11.0392 1.17934 11.0462 1.18984 11.0531C1.29484 11.121 1.38933 11.182 1.47683 11.2359C1.58358 11.3021 1.67982 11.3595 1.77607 11.4065C1.87056 11.4535 1.96331 11.4918 2.06131 11.5197C2.1593 11.5493 2.2643 11.5684 2.38154 11.5806C2.49879 11.5928 2.63003 11.5963 2.78053 11.5928C3.13926 11.5301 3.38775 11.4083 3.59074 11.2394C3.86723 11.0113 4.05798 10.6945 4.32222 10.3219C4.38171 10.2384 4.44296 10.153 4.51121 10.066C4.72645 9.79789 4.95219 9.52282 5.19018 9.24949C5.49642 8.89607 5.8184 8.54266 6.15789 8.19969C6.48338 7.86891 6.82111 7.54857 7.1711 7.24391C7.51234 6.94794 7.86407 6.66765 8.22631 6.41173C8.57979 6.16103 8.94028 5.93471 9.30776 5.73798C9.544 5.61263 9.78199 5.49773 10.0235 5.39849C10.1512 5.35148 10.2755 5.31318 10.398 5.27836C10.741 5.18087 11.0682 5.12864 11.3797 5.12516C11.6894 5.12168 11.9834 5.1652 12.2651 5.25921C12.4996 5.33756 12.7236 5.44898 12.9406 5.59696C13.1804 5.76061 13.4096 5.96604 13.6301 6.21674C13.8611 6.47962 14.0833 6.78952 14.2968 7.15338C14.4981 7.4946 14.6923 7.87935 14.8795 8.31111C15.142 8.91348 15.394 9.60464 15.639 10.3916C15.8613 11.1036 16.0765 11.894 16.29 12.7645C16.5052 13.6471 16.717 14.6116 16.9287 15.6632C16.9357 15.698 16.9427 15.7328 16.9497 15.7676C17.1474 16.7913 17.3154 17.7349 17.4677 18.6611C17.7127 20.1635 17.9157 21.6225 18.1309 23.2973C18.1817 23.6925 18.2307 24.0894 18.2797 24.4846C18.4564 25.9052 18.6226 27.3258 18.7784 28.7465C18.7749 28.7674 18.7714 28.79 18.7679 28.8109C18.6086 29.798 18.4476 30.8217 18.2954 31.8349C18.1274 32.9509 17.9717 34.0529 17.8369 35.0748C17.6637 36.4032 17.5272 37.5992 17.4589 38.5202C17.4257 38.9624 17.4082 39.3402 17.4082 39.6396C17.4082 40.7695 17.6829 41.8837 18.2394 42.6985C18.8904 43.6525 19.9298 44.1992 21.3735 43.8893C21.3788 43.8736 21.384 43.858 21.391 43.8388C21.3858 43.8562 21.3805 43.8736 21.3735 43.8893C22.0543 43.7431 22.5582 43.4262 22.9327 43.0171C24.1629 41.6679 23.9774 39.3071 23.9792 38.6943C23.9792 38.6421 23.9792 38.5881 23.9792 38.5341C23.9792 37.7873 23.9512 36.9029 23.8934 35.8513C23.8357 34.8137 23.7499 33.6124 23.6274 32.2197C23.5382 31.1977 23.4297 30.0731 23.2985 28.8335C23.4069 28.0762 23.5207 27.3102 23.6397 26.5372C23.7937 25.5518 23.9564 24.5577 24.1314 23.5636C24.3064 22.573 24.4902 21.5842 24.6879 20.604C24.8856 19.6221 25.0956 18.6507 25.3179 17.6984C25.5454 16.7269 25.7869 15.7746 26.0423 14.8536C26.3083 13.8978 26.5883 12.9734 26.8876 12.0942C27.2025 11.1663 27.535 10.2871 27.8885 9.47233C28.0093 9.19552 28.13 8.92567 28.256 8.66279C28.536 8.09175 28.8352 7.58165 29.152 7.12726C29.6542 6.4065 30.1949 5.82851 30.7532 5.38979C31.3149 4.94758 31.8924 4.64292 32.4663 4.4636C33.1523 4.24946 33.8313 4.21812 34.4665 4.35043C35.0825 4.47927 35.6565 4.76652 36.1517 5.19306C36.2409 5.26966 36.3267 5.34974 36.4107 5.43505C36.8132 5.84592 37.1456 6.39606 37.4256 7.06111C37.7284 7.78012 37.9664 8.63319 38.1571 9.59594C38.3251 10.4455 38.4563 11.3804 38.5613 12.3815C38.6576 13.2972 38.7328 14.2687 38.7941 15.2819C38.8518 16.2377 38.8991 17.2318 38.9428 18.2485C38.9848 19.2356 39.0216 20.2454 39.0618 21.2673C39.1021 22.284 39.1458 23.3112 39.1983 24.3401C39.2508 25.3708 39.3138 26.3997 39.3908 27.4199C39.4906 28.7169 39.6165 29.9982 39.7828 31.2395C39.2701 32.1344 38.7958 33.0571 38.3408 33.992C37.8106 35.0853 37.3049 36.196 36.7939 37.2963C36.2934 38.374 35.7859 39.4394 35.2435 40.4718C34.7062 41.4903 34.1323 42.4757 33.4935 43.4018C32.8688 44.3054 32.1811 45.155 31.4041 45.9228C31.2344 46.0899 31.0594 46.2553 30.8809 46.4154C30.2352 46.9934 29.5702 47.4809 28.8965 47.8918C27.9393 48.4767 26.9646 48.9068 25.9986 49.2201C24.9119 49.5718 23.8392 49.779 22.8172 49.8921C21.5993 50.0262 20.4566 50.0297 19.4521 49.9949C18.2167 49.9513 17.1912 49.8469 16.5052 49.8573C16.3495 49.8591 16.2042 49.8712 16.0712 49.8921C15.681 49.9513 15.3818 50.0889 15.1525 50.2943C15.086 50.3535 15.0265 50.4179 14.9705 50.4893C14.9163 50.5589 14.8655 50.6355 14.8218 50.7174C14.7763 50.7992 14.7378 50.8845 14.701 50.9767C14.666 51.0673 14.6346 51.1648 14.6083 51.2658C14.5628 51.4364 14.5278 51.6209 14.5033 51.8176C14.4946 51.8908 14.4858 51.9656 14.4788 52.0422C14.4701 52.171 14.4683 52.2912 14.4718 52.4043C14.4806 52.6063 14.5103 52.7839 14.5593 52.9406C14.6083 53.0972 14.6783 53.233 14.7658 53.3514C14.9145 53.5499 15.114 53.6979 15.359 53.811C15.9312 54.0774 16.7432 54.1523 17.6934 54.2393C18.2394 54.2898 18.7801 54.3264 19.3191 54.3455C20.6788 54.396 22.0105 54.3455 23.3055 54.1836C24.6949 54.013 26.0423 53.7153 27.3338 53.287C28.6672 52.8448 29.9394 52.2598 31.1399 51.5252C32.3088 50.8079 33.4095 49.9496 34.428 48.9381C35.0422 48.3288 35.6267 47.6637 36.1779 46.9412C36.4649 46.5634 36.7397 46.1787 37.0039 45.7887C37.7371 44.7058 38.3881 43.5794 38.9848 42.4391C39.571 41.3214 40.1048 40.1915 40.6175 39.0773C40.9535 38.3479 41.279 37.6271 41.6027 36.922C41.6027 36.9237 41.6045 36.9255 41.6062 36.929C41.818 37.3851 42.0332 37.8099 42.2537 38.2051C42.9134 39.3872 43.6204 40.3082 44.3869 41.0463C45.3738 41.9934 46.4623 42.6376 47.6907 43.1442C47.843 43.2069 47.9952 43.2678 48.1527 43.327C49.4774 43.7849 50.7128 44.0216 51.8591 44.0721C52.3543 44.0947 52.8338 44.0826 53.294 44.0373C54.3894 43.9311 55.3887 43.6438 56.2864 43.2138C56.4929 43.1146 56.6959 43.0084 56.8918 42.8935C58.0135 42.2424 58.962 41.3545 59.725 40.3116C60.4845 39.2775 61.0619 38.0902 61.4469 36.8315C61.4872 36.6992 61.5239 36.5668 61.5607 36.4345C61.9299 35.0731 62.0751 33.6455 61.9894 32.2475L61.9771 32.2388ZM21.4348 43.6647C21.4348 43.6647 21.4383 43.6491 21.44 43.6421C21.4383 43.6508 21.4365 43.656 21.4348 43.6647ZM21.475 43.4715C21.475 43.4715 21.4733 43.4819 21.4715 43.4872C21.4715 43.4819 21.4733 43.4767 21.475 43.4715ZM21.4575 43.5603C21.4575 43.5603 21.454 43.5759 21.4523 43.5829C21.4523 43.5759 21.4558 43.569 21.4575 43.5603ZM21.51 43.2835C21.51 43.2835 21.51 43.2765 21.5118 43.2713C21.5118 43.2748 21.5118 43.2782 21.51 43.2817V43.2835ZM21.4908 43.3897C21.4908 43.3897 21.4925 43.3792 21.4943 43.374C21.4943 43.3792 21.4925 43.3844 21.4908 43.3897ZM21.5293 43.1599C21.5293 43.1599 21.5293 43.1651 21.5293 43.1668C21.5293 43.1651 21.5293 43.1616 21.5293 43.1599ZM21.7113 41.8611C21.7183 41.8002 21.727 41.7392 21.734 41.6748C21.734 41.6783 21.734 41.68 21.734 41.6835C21.727 41.7445 21.72 41.8019 21.7113 41.8611ZM21.6728 42.171C21.6833 42.0926 21.6938 42.0126 21.7043 41.929C21.6938 42.0108 21.6833 42.0926 21.6728 42.171ZM21.7848 41.2605C21.79 41.2135 21.7953 41.1682 21.8023 41.1212C21.8023 41.1229 21.8023 41.1247 21.8023 41.1264C21.797 41.1717 21.7918 41.2152 21.7865 41.2605H21.7848ZM21.7515 41.5425C21.7568 41.4972 21.762 41.452 21.769 41.405C21.7638 41.452 21.7585 41.4972 21.7515 41.5425ZM21.8583 40.6355C21.8635 40.5954 21.867 40.5589 21.8723 40.5188C21.8723 40.5188 21.8723 40.5206 21.8723 40.5223C21.867 40.5606 21.8635 40.5972 21.8583 40.6355ZM22.8837 31.9307C22.8312 32.3485 22.777 32.7785 22.7227 33.2138C22.707 33.3374 22.6912 33.461 22.6755 33.5846C22.6597 33.7082 22.644 33.8335 22.6282 33.9572C22.6125 34.0808 22.5967 34.2061 22.581 34.3297C22.5652 34.4533 22.5495 34.5769 22.5355 34.7005C22.518 34.8346 22.5022 34.9617 22.4865 35.087C22.5845 34.2601 22.6877 33.3983 22.8015 32.5052C22.8715 31.9551 22.9432 31.3945 23.0202 30.8252C22.9765 31.1803 22.9292 31.5494 22.882 31.9307H22.8837ZM57.8858 33.9728C57.8491 34.4533 57.7721 34.9321 57.6601 35.3969C57.4816 36.1281 57.2121 36.8297 56.8464 37.46C56.7431 37.6375 56.6329 37.8099 56.5156 37.9753C56.1359 38.5115 55.6774 38.9798 55.1419 39.3472C55.1402 39.3472 55.1367 39.3506 55.1349 39.3524C54.9599 39.4568 54.7657 39.5543 54.5522 39.6449C54.0027 39.8782 53.336 40.0522 52.6063 40.1114C52.4138 40.1271 52.216 40.1341 52.0148 40.1341C51.2641 40.1306 50.4644 40 49.6699 39.6866C49.5124 39.6257 49.3567 39.5561 49.1992 39.4795C48.4379 39.1086 47.7537 38.562 47.1535 37.9056C46.289 36.962 45.5978 35.7904 45.1026 34.5926C44.7053 33.6299 44.4341 32.648 44.3011 31.7496C44.6843 31.1681 45.0868 30.6267 45.5208 30.1358C46.1893 29.3767 46.9278 28.736 47.7695 28.2486C48.5622 27.7889 49.4459 27.4634 50.4469 27.3015C51.2973 27.1639 52.2335 27.1448 53.273 27.2597C53.5652 27.2928 53.8505 27.338 54.1235 27.4007C54.6152 27.5121 55.1122 27.6758 55.5812 27.9665C56.1726 28.3339 56.7221 28.9066 57.1718 29.8398C57.2523 30.0087 57.3311 30.188 57.4046 30.3812C57.6601 31.0445 57.8176 31.767 57.8806 32.5104C57.9226 32.9944 57.9243 33.4854 57.8858 33.9763V33.9728Z" fill="white"/>
</g>
<defs>
<clipPath id="clip0_6076_60">
<rect width="62" height="54.3562" fill="white"/>
</clipPath>
</defs>
</svg>
