<svg width="40" height="62" viewBox="0 0 40 62" fill="none" xmlns="http://www.w3.org/2000/svg">
<path d="M39.5279 49.6868C39.3626 48.5379 39.068 47.5702 38.739 46.944C38.5823 46.6455 38.4169 46.423 38.255 46.2988C38.131 46.2039 37.9811 46.1453 37.8175 46.1194C37.6521 46.0935 37.4712 46.0987 37.2835 46.128C37.0957 46.1574 36.9011 46.2126 36.7082 46.2833C36.5153 46.354 36.3258 46.4437 36.1466 46.542C36.0192 46.6128 35.8986 46.6869 35.7866 46.7663C35.6747 46.8439 35.5713 46.925 35.48 47.0061C35.3887 47.0871 35.3095 47.1682 35.2475 47.2476C35.1838 47.3269 35.1355 47.4046 35.1062 47.477C34.9736 47.803 35.0046 48.1705 35.0959 48.6138C35.1906 49.0709 35.3526 49.6109 35.4731 50.2715C35.5627 50.7597 35.6299 51.3135 35.6299 51.9517C35.6299 52.59 35.5558 53.2058 35.4232 53.7613C35.1424 54.9274 34.5929 55.8762 33.8884 56.5593C33.1426 57.2838 32.2228 57.7116 31.2616 57.7858C30.4348 57.8496 29.5787 57.6495 28.7778 57.1527C28.3402 56.8801 27.9182 56.5196 27.5272 56.0625C27.2034 55.683 26.9226 55.2931 26.6832 54.8929C26.0597 53.851 25.7152 52.7383 25.5911 51.555C25.4688 50.4026 25.5567 49.1831 25.7978 47.8996C26.0252 46.6869 26.3904 45.4156 26.8451 44.0873C27.2757 42.8281 27.7873 41.517 28.3403 40.1543C28.8691 38.8536 29.434 37.5064 30.0025 36.1143C30.5519 34.7687 31.1031 33.3784 31.6268 31.9466C32.1384 30.5476 32.6224 29.1089 33.0513 27.6288C33.4716 26.1781 33.8385 24.686 34.1244 23.1576C34.4 21.6827 34.5998 20.1716 34.6997 18.6259C34.7462 17.8963 34.7721 17.1562 34.7721 16.411C34.7721 15.5485 34.7273 14.7136 34.6412 13.908C34.4569 12.1674 34.0814 10.5649 33.5474 9.11242C32.9204 7.40982 32.0764 5.91594 31.0653 4.6584C29.9456 3.26285 28.621 2.15711 27.1672 1.37395C25.5946 0.523513 23.8669 0.0543057 22.0772 0.00427994C20.384 -0.0422958 18.6357 0.290634 16.9097 1.03412C15.4318 1.67238 13.9694 2.61252 12.5724 3.88041C12.5053 3.94251 12.4381 4.00289 12.3709 4.06672C11.1703 5.18798 10.3039 6.60768 9.70275 8.15675C9.0861 9.7455 8.74676 11.4723 8.61069 13.1542C8.59518 13.3353 8.58313 13.5181 8.57279 13.6975C8.50217 15.3329 8.65719 16.8043 8.98102 18.1947C9.34792 19.7731 9.93529 21.2463 10.6639 22.7263C11.3012 24.0235 12.0471 25.3259 12.8498 26.7129C13.5267 27.8824 14.2433 29.1124 14.9684 30.4475C15.1286 30.7425 15.2888 31.041 15.449 31.3463C15.1545 31.1531 14.8272 30.9771 14.4775 30.8219C14.0917 30.6528 13.6748 30.5096 13.2356 30.3958C11.8094 30.0266 10.1403 29.9697 8.47289 30.3578C6.67287 30.777 4.87457 31.7137 3.39322 33.3335C2.28737 34.5428 1.55359 35.8883 1.14535 37.2735C0.626879 39.0364 0.635491 40.8667 1.08162 42.5728C1.53119 44.2943 2.4269 45.89 3.67399 47.1613C4.90558 48.4171 6.47995 49.3556 8.3058 49.7885C9.44438 50.0576 10.6829 50.1318 11.9971 49.961C12.5242 49.8938 13.041 49.7851 13.5474 49.6419C15.2458 49.1589 16.8046 48.2567 18.0724 46.9923C19.2609 45.8055 20.1928 44.2995 20.7423 42.5176C20.7871 42.3727 20.8284 42.2277 20.868 42.0794C21.2883 40.5079 21.4382 39.0157 21.3848 37.5891C21.3228 35.9107 20.9783 34.322 20.4598 32.7953C19.962 31.3273 19.304 29.9162 18.5805 28.5379C17.8915 27.2252 17.1423 25.9418 16.4171 24.6687C15.7074 23.4232 15.0218 22.1881 14.4362 20.9426C13.8574 19.711 13.3751 18.469 13.0668 17.1993C12.7688 15.9728 12.631 14.7205 12.7223 13.425C12.805 12.252 13.0737 11.0444 13.5801 9.7869C13.5853 9.77483 13.5887 9.76448 13.5939 9.7524C14.0882 8.53626 14.7686 7.50469 15.5662 6.66288C16.436 5.74344 17.4454 5.04653 18.5013 4.58077C19.5383 4.12192 20.62 3.88386 21.6587 3.87179C21.7362 3.87179 21.8137 3.87179 21.8912 3.87524C23.0125 3.90974 24.1683 4.28234 25.2466 4.8792C26.3111 5.46916 27.2981 6.27993 28.1025 7.20281C28.714 7.9049 29.2204 8.67254 29.5736 9.45915C29.7028 9.74723 29.8216 10.0491 29.9301 10.37C30.2884 11.4309 30.5296 12.678 30.6208 14.1667C30.6932 15.3587 30.6725 16.706 30.5382 18.2361C30.4279 19.4954 30.2436 20.8805 29.9749 22.4055C29.9232 22.697 29.8698 22.9954 29.8113 23.2973C29.5908 24.3892 29.329 25.4501 29.0379 26.4834C28.6469 27.8686 28.2007 29.2038 27.7253 30.4976C27.2223 31.8672 26.6849 33.1921 26.1441 34.4789C25.5653 35.8555 24.9831 37.1907 24.4336 38.4965C23.8342 39.9197 23.2726 41.3083 22.799 42.6763C22.2701 44.2012 21.8499 45.7002 21.6001 47.1958C21.4416 48.1532 21.352 49.1072 21.352 50.068C21.352 50.7339 21.4003 51.4135 21.495 52.0932C21.7224 53.7302 22.2185 55.3724 22.9781 56.8353C23.8221 58.4585 24.9883 59.8627 26.4644 60.7942C27.6667 61.5532 29.074 62 30.6811 62C31.1014 62 31.5217 61.9655 31.9368 61.8982C33.6955 61.617 35.3836 60.7459 36.7426 59.3486C37.4695 58.6017 38.1034 57.703 38.6029 56.6628C38.9026 56.0366 39.13 55.3845 39.2954 54.7256C39.7363 52.9747 39.7432 51.172 39.5279 49.6747V49.6868ZM12.3967 45.5967C11.377 45.8727 10.3005 45.8883 9.28419 45.6399C8.68992 45.4949 8.11805 45.2603 7.58752 44.9343C7.24474 44.7239 6.93641 44.4806 6.66253 44.215C5.89085 43.4646 5.39133 42.521 5.15362 41.517C4.91764 40.5182 4.94175 39.4625 5.21563 38.4775C5.47745 37.5374 5.96664 36.6628 6.67804 35.9693C7.50656 35.162 8.47633 34.6601 9.48055 34.4358C10.4555 34.2167 11.4632 34.2616 12.4002 34.5445C13.2718 34.8067 14.0831 35.2742 14.7531 35.928C16.1466 37.2873 16.9373 39.4522 16.4033 42.2536C16.0622 42.9523 15.6247 43.5491 15.1183 44.0425C14.3363 44.8067 13.3924 45.3259 12.395 45.5967H12.3967Z" fill="white"/>
</svg>
